<svg width="1236.963" height="82.813" viewBox="0 0 1236.963 82.813" xmlns="http://www.w3.org/2000/svg"><g id="svgGroup" stroke-linecap="round" fill-rule="evenodd" font-size="9pt" stroke="#000" stroke-width="0.25mm" fill="none" style="stroke:#000;stroke-width:0.25mm;"><path d="M 2.051 29.834 L 0.098 30.811 A 32.043 32.043 0 0 1 3.473 23.655 A 28.857 28.857 0 0 1 5.005 21.484 A 38.084 38.084 0 0 1 12.085 14.453 A 44.835 44.835 0 0 1 20.483 9.424 A 69.247 69.247 0 0 1 28.177 6.418 A 62.635 62.635 0 0 1 29.346 6.055 A 83.85 83.85 0 0 1 44.253 3.071 A 99.897 99.897 0 0 1 51.563 2.539 A 106.151 106.151 0 0 0 56.392 2.425 A 128.13 128.13 0 0 0 59.473 2.246 Q 62.578 2.036 66.44 1.628 A 269.149 269.149 0 0 0 67.725 1.489 A 120.223 120.223 0 0 0 74.334 0.565 A 142.081 142.081 0 0 0 77.49 0 A 22.379 22.379 0 0 0 74.976 5.078 Q 74.023 7.812 73.486 10.596 A 46.693 46.693 0 0 0 72.754 16.089 A 79.92 79.92 0 0 0 72.607 18.683 A 60.09 60.09 0 0 0 72.559 21.045 Q 72.559 22.557 72.607 23.777 A 178.716 178.716 0 0 0 72.607 23.779 A 40.685 40.685 0 0 0 72.651 24.647 Q 72.677 25.074 72.711 25.448 A 20.642 20.642 0 0 0 72.754 25.879 A 27.439 27.439 0 0 0 72.864 26.855 A 20.319 20.319 0 0 0 72.998 27.734 A 79.895 79.895 0 0 0 62.618 23.856 A 66.049 66.049 0 0 0 56.348 22.339 A 86.807 86.807 0 0 0 44.492 20.897 A 76.565 76.565 0 0 0 40.674 20.801 A 70.567 70.567 0 0 0 37.005 20.893 A 61.024 61.024 0 0 0 35.742 20.972 A 91.34 91.34 0 0 0 31.055 21.436 A 9.759 9.759 0 0 0 31.805 23.584 A 7.858 7.858 0 0 0 32.983 25.342 A 18.458 18.458 0 0 0 34.381 26.758 A 13.73 13.73 0 0 0 35.791 27.881 Q 37.451 29.004 39.355 29.639 A 117.361 117.361 0 0 1 43.225 30.939 A 153.781 153.781 0 0 1 47.412 32.495 Q 51.758 34.18 56.104 36.67 Q 60.449 39.16 64.453 42.529 Q 68.457 45.898 71.484 50.342 Q 73.34 48.779 75.098 46.899 A 35.164 35.164 0 0 0 78.369 42.822 A 18.91 18.91 0 0 1 78.538 44.858 A 17.449 17.449 0 0 1 78.54 44.922 A 84.141 84.141 0 0 1 78.564 46.924 A 29.376 29.376 0 0 1 77.606 54.511 A 26.787 26.787 0 0 1 76.978 56.543 A 31.315 31.315 0 0 1 72.607 64.795 A 35.23 35.23 0 0 1 66.04 71.533 A 41.091 41.091 0 0 1 57.813 76.562 A 46.72 46.72 0 0 1 48.511 79.712 Q 43.652 80.811 38.77 80.811 Q 34.18 80.811 29.932 80.42 A 93.968 93.968 0 0 0 24.793 80.084 A 79.233 79.233 0 0 0 21.875 80.029 A 36.831 36.831 0 0 0 18.093 80.217 A 31.193 31.193 0 0 0 16.357 80.444 A 13.868 13.868 0 0 0 11.572 82.129 A 157.674 157.674 0 0 0 9.711 75.751 A 121.047 121.047 0 0 0 7.739 69.995 A 224.701 224.701 0 0 0 6.264 66.135 Q 5.519 64.241 4.822 62.589 A 114.806 114.806 0 0 0 4.004 60.693 Q 2.002 56.201 0 52.637 A 68.464 68.464 0 0 0 9.458 56.718 A 61.753 61.753 0 0 0 11.646 57.422 A 108.155 108.155 0 0 0 18.72 59.304 A 89.139 89.139 0 0 0 22.754 60.132 A 97.534 97.534 0 0 0 27.795 60.913 A 71.435 71.435 0 0 0 32.373 61.353 A 187.252 187.252 0 0 0 34.454 61.47 Q 37.439 61.621 39.6 61.621 A 54.734 54.734 0 0 0 46.094 61.23 A 53.144 53.144 0 0 0 52.686 60.01 A 18.817 18.817 0 0 0 51.575 58.641 A 15.807 15.807 0 0 0 50.977 58.008 A 18.798 18.798 0 0 0 50.287 57.35 Q 49.8 56.911 49.365 56.592 A 15.954 15.954 0 0 0 48.339 55.907 A 12.858 12.858 0 0 0 47.656 55.518 A 14.315 14.315 0 0 0 46.564 55.05 Q 45.409 54.607 43.823 54.175 A 625.224 625.224 0 0 0 41.272 53.485 A 841.698 841.698 0 0 0 38.452 52.734 A 494.37 494.37 0 0 1 35.4 51.917 A 598.425 598.425 0 0 1 32.153 51.025 A 82.946 82.946 0 0 1 25.513 48.877 A 55.057 55.057 0 0 1 19.214 46.094 A 29.458 29.458 0 0 1 15.238 43.621 A 25.724 25.724 0 0 1 13.867 42.529 A 17.317 17.317 0 0 1 11.55 40.102 A 15.204 15.204 0 0 1 10.791 39.038 A 18.796 18.796 0 0 1 9.047 35.674 A 17.244 17.244 0 0 1 8.862 35.181 Q 8.154 33.203 7.837 31.226 A 30.249 30.249 0 0 1 7.527 28.587 A 25.942 25.942 0 0 1 7.471 27.441 A 72.169 72.169 0 0 0 5.847 28.113 A 53.509 53.509 0 0 0 4.395 28.76 Q 3.455 29.196 2.699 29.54 A 154.816 154.816 0 0 1 2.051 29.834 Z" id="0" vector-effect="non-scaling-stroke"/><path d="M 144.385 19.531 L 144.873 19.531 A 42 42 0 0 0 141.65 22.388 A 40.796 40.796 0 0 0 138.77 25.537 Q 143.359 26.416 147.461 28.345 A 26.783 26.783 0 0 1 153.214 31.969 A 24.412 24.412 0 0 1 154.59 33.203 A 22.391 22.391 0 0 1 159.399 40.015 A 19.689 19.689 0 0 1 161.096 46.602 A 23.784 23.784 0 0 1 161.182 48.633 A 27.89 27.89 0 0 1 160.649 54.193 A 22.624 22.624 0 0 1 159.399 58.325 Q 157.617 62.646 154.468 66.04 A 31.051 31.051 0 0 1 147.817 71.429 A 35.153 35.153 0 0 1 147.021 71.899 Q 142.725 74.365 137.695 75.952 A 64.738 64.738 0 0 1 128.139 78.167 A 71.671 71.671 0 0 1 127.1 78.32 A 80.703 80.703 0 0 1 115.869 79.102 A 118.713 118.713 0 0 1 112.784 79.06 A 132.013 132.013 0 0 1 111.719 79.028 A 110.121 110.121 0 0 1 107.671 78.818 A 101.033 101.033 0 0 1 107.544 78.809 A 50.914 50.914 0 0 1 105.241 78.592 A 40.809 40.809 0 0 1 103.784 78.394 Q 102.051 78.125 100.879 77.734 A 60.811 60.811 0 0 0 103.491 75.464 A 31.231 31.231 0 0 0 105.235 73.729 A 27.558 27.558 0 0 0 105.762 73.145 A 41.763 41.763 0 0 1 97.815 70.83 A 38.511 38.511 0 0 1 97.046 70.508 Q 92.969 68.75 89.893 65.991 Q 86.816 63.232 85.034 59.497 Q 83.252 55.762 83.252 50.928 A 26.67 26.67 0 0 1 83.909 44.903 A 22.254 22.254 0 0 1 85.327 40.698 A 27.069 27.069 0 0 1 91.016 32.568 A 34.258 34.258 0 0 1 97.999 27.294 A 39.409 39.409 0 0 1 99.512 26.465 A 58.471 58.471 0 0 1 109.224 22.503 A 64.75 64.75 0 0 1 110.01 22.266 A 74.819 74.819 0 0 1 121.704 19.824 A 94.724 94.724 0 0 1 133.789 19.043 A 109.349 109.349 0 0 1 138.892 19.165 Q 141.504 19.287 144.385 19.531 Z M 139.99 45.215 A 15.83 15.83 0 0 0 139.741 42.322 Q 139.324 40.078 138.208 38.428 A 12.918 12.918 0 0 0 133.496 34.229 Q 132.959 35.498 132.471 36.841 Q 131.982 38.184 131.592 39.6 A 68.105 68.105 0 0 0 129.372 39.003 Q 128.374 38.754 127.495 38.574 A 29.811 29.811 0 0 0 125.854 38.281 A 39.907 39.907 0 0 0 124.285 38.08 Q 123.547 38.001 122.908 37.966 A 17.403 17.403 0 0 0 121.973 37.939 A 19.597 19.597 0 0 0 116.357 38.782 A 22.213 22.213 0 0 0 115.771 38.965 Q 112.646 39.99 110.156 41.919 Q 107.666 43.848 106.079 46.606 Q 104.492 49.365 104.492 52.832 A 11.441 11.441 0 0 0 106.177 58.911 Q 107.861 61.67 110.596 64.014 A 22.014 22.014 0 0 0 111.255 60.937 Q 111.475 59.375 111.572 57.715 A 45.527 45.527 0 0 0 114.165 58.816 Q 115.455 59.314 116.619 59.656 A 22.689 22.689 0 0 0 117.969 60.01 A 29.269 29.269 0 0 0 120.117 60.421 Q 121.14 60.575 122.049 60.623 A 15.203 15.203 0 0 0 122.852 60.645 A 19.374 19.374 0 0 0 129.15 59.595 A 17.275 17.275 0 0 0 134.644 56.543 A 15.298 15.298 0 0 0 138.525 51.685 A 13.334 13.334 0 0 0 139.899 46.974 A 16.538 16.538 0 0 0 139.99 45.215 Z" id="1" vector-effect="non-scaling-stroke"/><path d="M 173.877 28.125 L 166.748 27.197 L 166.553 27.197 A 134.567 134.567 0 0 1 170.19 26.074 Q 172.021 25.537 173.877 25 L 173.877 18.701 Q 177.197 19.189 180.493 19.409 A 98.458 98.458 0 0 0 185.313 19.615 A 88.472 88.472 0 0 0 186.865 19.629 Q 188.672 19.629 190.698 19.556 Q 192.725 19.482 195.166 19.238 A 3.855 3.855 0 0 0 195.107 19.518 Q 195.081 19.663 195.073 19.791 A 1.957 1.957 0 0 0 195.068 19.922 L 195.068 20.508 Q 199.658 19.922 204.272 19.58 Q 208.887 19.238 213.574 19.238 Q 217.871 19.238 222.217 19.531 A 169.748 169.748 0 0 1 226.721 19.897 A 209.681 209.681 0 0 1 231.543 20.41 A 70.731 70.731 0 0 0 230.737 26.416 A 65.767 65.767 0 0 0 230.469 32.324 A 72.391 72.391 0 0 0 230.64 37.231 A 59.72 59.72 0 0 0 230.937 40.347 A 74.185 74.185 0 0 0 231.25 42.627 A 303.377 303.377 0 0 0 212.964 36.621 Q 203.809 33.936 194.385 31.836 Q 194.287 33.936 194.287 36.011 L 194.287 40.234 L 194.287 44.336 Q 197.607 43.848 200.903 43.628 Q 204.199 43.408 207.568 43.408 A 4.041 4.041 0 0 1 207.721 43.411 Q 207.795 43.414 207.879 43.419 A 9.011 9.011 0 0 1 208.057 43.433 Q 208.336 43.456 208.794 43.457 A 19.032 19.032 0 0 0 208.838 43.457 A 24.654 24.654 0 0 1 209.102 43.459 Q 209.528 43.463 210.132 43.481 Q 210.853 43.503 211.983 43.506 A 133.776 133.776 0 0 0 212.256 43.506 A 43.016 43.016 0 0 0 211.45 48.169 Q 211.182 50.488 211.182 52.832 A 32.048 32.048 0 0 0 211.228 54.511 Q 211.273 55.368 211.362 56.316 A 54.774 54.774 0 0 0 211.426 56.958 Q 211.67 59.277 212.061 61.914 Q 207.666 59.033 203.345 56.592 A 120.304 120.304 0 0 0 194.58 52.1 A 225.563 225.563 0 0 0 195.483 64.185 Q 196.094 70.166 197.07 76.221 Q 192.676 76.221 188.867 76.514 A 84.639 84.639 0 0 0 182.44 77.249 A 76.331 76.331 0 0 0 181.543 77.393 A 79.999 79.999 0 0 0 174.634 78.857 A 111.626 111.626 0 0 0 168.564 80.62 A 123.597 123.597 0 0 0 167.676 80.908 Q 169.287 74.561 170.41 68.115 A 214.949 214.949 0 0 0 172.266 55.127 A 248.822 248.822 0 0 0 173.389 41.846 Q 173.779 35.107 173.877 28.125 Z" id="2" vector-effect="non-scaling-stroke"/><path d="M 274.951 20.508 L 275.244 20.508 A 159.337 159.337 0 0 0 286.353 20.117 A 149.859 149.859 0 0 0 293.466 19.442 A 185.404 185.404 0 0 0 298.34 18.799 Q 297.363 20.508 296.704 22.412 Q 296.045 24.316 296.045 27.1 A 18.259 18.259 0 0 0 296.122 28.726 Q 296.196 29.556 296.342 30.469 A 29.827 29.827 0 0 0 296.362 30.591 A 25.56 25.56 0 0 0 296.725 32.369 Q 296.945 33.292 297.249 34.316 A 46.952 46.952 0 0 0 297.461 35.01 Q 292.09 33.789 286.377 33.154 Q 280.664 32.52 274.854 32.52 A 160.634 160.634 0 0 0 276.929 54.419 A 139.333 139.333 0 0 0 282.324 76.025 A 98.152 98.152 0 0 1 281.764 76.024 Q 281.016 76.02 280.472 76.003 A 31.661 31.661 0 0 1 280.396 76.001 A 66.039 66.039 0 0 0 280.035 75.99 Q 279.595 75.978 279.276 75.977 A 19.44 19.44 0 0 0 279.175 75.977 Q 278.792 75.977 278.559 75.96 A 3.26 3.26 0 0 1 278.467 75.952 Q 278.239 75.929 278.053 75.928 A 3.205 3.205 0 0 0 278.027 75.928 A 79.316 79.316 0 0 0 266.992 76.709 A 69.716 69.716 0 0 0 257.146 78.848 A 78.033 78.033 0 0 0 255.664 79.297 A 24.999 24.999 0 0 1 255.591 78.113 A 33.383 33.383 0 0 1 255.566 76.807 L 255.566 74.316 A 129.602 129.602 0 0 1 256.875 55.659 A 117.88 117.88 0 0 1 257.275 53.101 A 90.433 90.433 0 0 1 263.037 33.203 A 118.765 118.765 0 0 0 248.926 35.669 A 98.543 98.543 0 0 0 234.863 40.137 A 75.335 75.335 0 0 0 235.79 35.946 A 61.274 61.274 0 0 0 236.206 33.496 A 42.115 42.115 0 0 0 236.654 28.547 A 37.719 37.719 0 0 0 236.67 27.441 A 42.816 42.816 0 0 0 236.304 21.899 A 56.019 56.019 0 0 0 235.254 16.211 Q 243.75 17.871 252.368 18.994 Q 260.986 20.117 269.629 20.41 A 379.272 379.272 0 0 1 272.437 16.162 A 67.069 67.069 0 0 1 275.537 11.914 A 82.046 82.046 0 0 0 275.171 16.211 A 315.112 315.112 0 0 0 274.951 20.508 Z" id="3" vector-effect="non-scaling-stroke"/><path d="M 392.773 22.217 A 115.404 115.404 0 0 0 383.58 44.495 A 106.471 106.471 0 0 0 382.69 47.729 Q 379.346 60.693 379.346 74.805 A 98.793 98.793 0 0 0 367.065 76.636 Q 361.035 77.93 355.078 79.639 A 137.479 137.479 0 0 0 350.928 68.115 A 80.391 80.391 0 0 0 346.463 58.935 A 72.915 72.915 0 0 0 345.752 57.715 Q 344.824 60.01 343.799 62.5 A 85.801 85.801 0 0 0 341.895 67.578 Q 341.016 70.166 340.332 72.852 A 38.819 38.819 0 0 0 339.355 78.223 Q 333.887 76.709 328.687 75.708 Q 323.486 74.707 318.652 74.707 A 28.778 28.778 0 0 0 318.222 74.71 Q 317.841 74.716 317.383 74.731 A 51.484 51.484 0 0 0 316.064 74.793 A 56.77 56.77 0 0 0 315.869 74.805 A 842.806 842.806 0 0 1 314.282 74.902 A 274.508 274.508 0 0 0 313.495 74.951 A 238.092 238.092 0 0 0 312.744 75 A 53.935 53.935 0 0 0 313.013 71.387 Q 313.086 69.58 313.086 67.725 A 78.917 78.917 0 0 0 309.546 44.141 Q 306.006 32.764 298.389 22.412 Q 311.621 21.826 325.049 18.506 A 2145.228 2145.228 0 0 1 326.453 22.968 A 1670.038 1670.038 0 0 1 327.734 27.075 Q 328.955 31.006 329.932 34.79 Q 330.908 38.574 331.641 42.48 A 101.141 101.141 0 0 1 332.456 47.578 A 124.471 124.471 0 0 1 332.861 50.928 A 288.161 288.161 0 0 0 334.015 47.296 A 228.278 228.278 0 0 0 335.034 43.921 A 85.331 85.331 0 0 0 336.284 39.174 A 74.551 74.551 0 0 0 336.621 37.646 A 52.279 52.279 0 0 0 337.524 31.689 A 42.417 42.417 0 0 0 337.698 27.816 A 46.59 46.59 0 0 0 337.646 25.635 A 96.769 96.769 0 0 0 340.289 25.977 A 77.223 77.223 0 0 0 342.749 26.221 A 59.013 59.013 0 0 0 345.449 26.384 A 47.275 47.275 0 0 0 347.168 26.416 A 66.75 66.75 0 0 0 349.799 26.362 A 77.088 77.088 0 0 0 350.757 26.318 A 44.774 44.774 0 0 0 353.18 26.123 A 55.299 55.299 0 0 0 354.785 25.928 Q 354.785 30.271 355.151 33.761 A 143.051 143.051 0 0 0 355.151 33.765 A 50.157 50.157 0 0 0 355.8 38.147 A 42.046 42.046 0 0 0 356.274 40.283 A 41.186 41.186 0 0 0 357.947 45.51 A 37.705 37.705 0 0 0 358.154 46.021 A 56.701 56.701 0 0 0 360.237 50.473 A 63.711 63.711 0 0 0 360.791 51.514 Q 361.914 47.559 362.671 43.555 Q 363.428 39.551 363.916 35.352 Q 364.404 31.152 364.697 26.709 A 331.513 331.513 0 0 0 364.966 22.144 A 386.802 386.802 0 0 0 365.186 17.334 A 82.917 82.917 0 0 0 378.662 20.996 A 77.815 77.815 0 0 0 390.712 22.193 A 87.479 87.479 0 0 0 392.773 22.217 Z" id="4" vector-effect="non-scaling-stroke"/><path d="M 471.24 57.812 Q 469.189 58.789 467.188 59.692 A 112.263 112.263 0 0 1 463.135 61.426 A 129.451 129.451 0 0 0 473.047 76.709 A 69.585 69.585 0 0 0 461.2 77.692 A 62.946 62.946 0 0 0 458.594 78.198 A 70.098 70.098 0 0 0 448.157 81.352 A 81.183 81.183 0 0 0 444.629 82.813 A 8.686 8.686 0 0 0 445.288 80.2 A 30.468 30.468 0 0 0 445.41 77.441 Q 445.41 75.098 444.971 72.29 A 45.949 45.949 0 0 0 444.25 68.676 A 54.905 54.905 0 0 0 443.652 66.406 A 49.998 49.998 0 0 1 439.551 66.821 A 67.404 67.404 0 0 1 435.547 66.943 A 55.267 55.267 0 0 1 428.735 66.528 A 35.705 35.705 0 0 1 422.314 65.137 Q 421.484 68.75 420.801 72.534 A 821.657 821.657 0 0 0 419.455 80.197 A 891.932 891.932 0 0 0 419.434 80.322 Q 416.943 79.053 413.965 78.027 A 49.582 49.582 0 0 0 411.589 77.32 Q 409.962 76.877 408.081 76.465 A 32.162 32.162 0 0 0 402.404 75.758 A 36.592 36.592 0 0 0 401.025 75.732 A 42.429 42.429 0 0 0 396.692 75.964 A 51.41 51.41 0 0 0 394.287 76.27 Q 390.723 76.807 386.426 78.027 A 107.607 107.607 0 0 0 392.651 71.362 Q 395.557 67.969 397.974 64.819 A 148.051 148.051 0 0 0 400.256 61.768 A 114.198 114.198 0 0 0 402.271 58.911 Q 404.15 56.152 405.42 54.102 Q 404.004 52.393 402.808 50.439 A 44.767 44.767 0 0 1 401.082 47.345 A 50.774 50.774 0 0 1 400.537 46.24 Q 402.49 47.217 404.395 48.022 Q 406.299 48.828 408.154 49.512 A 232.049 232.049 0 0 1 412.891 41.553 Q 415.381 37.549 418.213 33.74 A 39.836 39.836 0 0 0 417.639 32.426 Q 417.334 31.757 416.971 31.018 A 70.963 70.963 0 0 0 416.724 30.518 A 117.503 117.503 0 0 0 415.286 27.739 A 133.075 133.075 0 0 0 414.771 26.782 Q 413.721 24.854 412.549 22.949 A 79.407 79.407 0 0 0 411.103 20.683 A 65.308 65.308 0 0 0 410.254 19.434 Q 414.941 20.703 419.653 21.436 A 92.477 92.477 0 0 0 429.053 22.412 A 54.341 54.341 0 0 1 434.668 18.384 A 48.092 48.092 0 0 1 440.82 15.137 Q 439.795 16.846 438.818 18.652 A 129.376 129.376 0 0 0 436.914 22.314 Q 439.355 22.07 441.846 21.753 A 71.983 71.983 0 0 0 445.691 21.153 A 81.993 81.993 0 0 0 447.021 20.898 A 211.332 211.332 0 0 0 450.977 33.74 A 222.472 222.472 0 0 0 455.615 46.045 A 162.763 162.763 0 0 0 459.888 43.53 A 65.467 65.467 0 0 0 464.111 40.723 A 107.39 107.39 0 0 0 466.047 46.663 A 86.846 86.846 0 0 0 467.383 50.146 A 56.533 56.533 0 0 0 469.468 54.687 A 44.676 44.676 0 0 0 471.24 57.812 Z M 438.525 52.637 A 144.19 144.19 0 0 0 434.79 44.946 A 166.685 166.685 0 0 0 430.42 37.109 A 187.94 187.94 0 0 0 426.373 49.231 A 215.253 215.253 0 0 0 425.146 53.516 A 15.689 15.689 0 0 0 426.88 53.613 L 428.613 53.613 Q 431.104 53.613 433.569 53.394 A 40.57 40.57 0 0 0 438.525 52.637 Z" id="5" vector-effect="non-scaling-stroke"/><path d="M 489.16 38.33 L 489.16 36.523 A 140.524 140.524 0 0 0 483.936 38.281 A 85.366 85.366 0 0 0 478.76 40.332 A 36.366 36.366 0 0 0 479.846 35.915 A 26.482 26.482 0 0 0 480.273 31.299 A 24.475 24.475 0 0 0 479.699 25.932 A 22.222 22.222 0 0 0 479.395 24.731 A 23.583 23.583 0 0 0 476.855 18.896 Q 487.354 17.432 495.435 16.919 A 281.742 281.742 0 0 1 502.174 16.568 Q 505.263 16.447 508.044 16.416 A 166.402 166.402 0 0 1 509.863 16.406 A 170.025 170.025 0 0 1 512.595 16.43 Q 513.993 16.452 515.548 16.496 A 294.54 294.54 0 0 1 516.602 16.528 A 87.31 87.31 0 0 1 523.914 17.079 A 95.19 95.19 0 0 1 524.414 17.139 A 75.277 75.277 0 0 1 532.397 18.555 A 36.441 36.441 0 0 1 537.558 20.153 A 31.394 31.394 0 0 1 539.697 21.094 A 20.713 20.713 0 0 1 543.978 23.839 A 18.583 18.583 0 0 1 545.386 25.146 Q 547.754 27.588 548.584 31.006 Q 549.707 30.469 550.781 29.932 A 29.264 29.264 0 0 0 552.42 29.044 A 33.513 33.513 0 0 0 552.979 28.711 Q 552.393 32.227 551.025 35.718 Q 549.658 39.209 547.632 42.48 A 42.493 42.493 0 0 1 542.944 48.682 Q 540.283 51.611 537.158 54.102 A 100.257 100.257 0 0 0 550.414 70.942 A 91.643 91.643 0 0 0 553.174 73.633 A 68.691 68.691 0 0 0 539.331 76.099 Q 532.617 78.027 525.684 81.396 A 63.278 63.278 0 0 0 522.397 66.556 A 57.158 57.158 0 0 0 520.557 62.012 A 40.144 40.144 0 0 1 516.602 62.695 A 33.868 33.868 0 0 1 512.986 62.936 A 37.333 37.333 0 0 1 512.451 62.939 L 510.815 62.939 Q 510.01 62.939 509.18 62.842 A 386.924 386.924 0 0 0 509.766 77.93 Q 508.203 77.686 506.641 77.612 A 66.455 66.455 0 0 0 504.47 77.545 A 57.179 57.179 0 0 0 503.662 77.539 A 49.63 49.63 0 0 0 498.264 77.849 A 66.402 66.402 0 0 0 493.066 78.638 Q 487.305 79.736 480.664 81.934 A 153.029 153.029 0 0 0 484.937 68.555 A 122.169 122.169 0 0 0 487.744 55.127 Q 484.424 52.93 482.056 50.83 A 65.561 65.561 0 0 1 480.688 49.585 Q 479.306 48.288 478.467 47.314 A 95.272 95.272 0 0 0 483.263 48.547 A 103.569 103.569 0 0 0 483.423 48.584 Q 485.986 49.17 488.574 49.609 A 107.677 107.677 0 0 0 489.16 38.33 Z M 531.885 35.889 L 531.885 35.84 L 531.982 35.84 A 18.961 18.961 0 0 0 530.25 34.156 A 17.135 17.135 0 0 0 529.956 33.911 Q 528.906 33.057 527.539 32.471 A 11.622 11.622 0 0 0 526.062 31.958 Q 525.269 31.738 524.365 31.592 Q 522.559 31.299 520.068 31.299 Q 518.573 31.299 516.648 31.428 A 82.545 82.545 0 0 0 515.43 31.519 A 500.196 500.196 0 0 0 512.622 31.757 A 643.239 643.239 0 0 0 509.57 32.031 A 1845.872 1845.872 0 0 0 509.302 41.382 A 353.585 353.585 0 0 0 509.18 50.635 A 26.206 26.206 0 0 0 514.045 49.436 A 23.995 23.995 0 0 0 514.697 49.194 A 17.546 17.546 0 0 0 518.35 47.281 A 15.862 15.862 0 0 0 519.287 46.582 A 13.314 13.314 0 0 0 522.583 42.651 A 13.394 13.394 0 0 0 523.801 39.613 A 17.51 17.51 0 0 0 524.268 37.207 A 654.135 654.135 0 0 1 528.052 36.621 A 95.127 95.127 0 0 0 531.982 35.937 Q 531.924 35.937 531.901 35.92 A 0.037 0.037 0 0 1 531.885 35.889 Z" id="6" vector-effect="non-scaling-stroke"/><path d="M 587.354 75.098 L 587.549 76.025 Q 582.52 76.025 578.516 76.05 Q 574.512 76.074 571.069 76.294 Q 567.627 76.514 564.526 76.978 A 55.957 55.957 0 0 0 559.375 78.005 A 62.942 62.942 0 0 0 558.154 78.32 A 128.057 128.057 0 0 0 562.47 61.492 A 117.441 117.441 0 0 0 562.72 60.083 A 107.02 107.02 0 0 0 564.258 42.041 Q 564.258 33.887 562.939 25.537 A 131.224 131.224 0 0 0 556.934 24.805 L 556.738 24.805 L 562.549 23.34 L 561.523 18.408 A 147.766 147.766 0 0 0 567.188 19.922 A 102.513 102.513 0 0 0 572.852 21.143 A 194.049 194.049 0 0 1 589.38 18.823 A 175.048 175.048 0 0 1 606.25 18.018 A 146.336 146.336 0 0 1 613.794 18.213 A 467.238 467.238 0 0 1 617.719 18.433 A 575.696 575.696 0 0 1 621.924 18.701 Q 620.898 22.363 620.361 26.025 Q 619.824 29.687 619.824 33.545 Q 619.824 34.717 619.897 36.255 Q 619.971 37.793 620.215 39.6 Q 611.865 36.426 603.516 33.911 Q 595.166 31.396 586.523 29.541 A 132.283 132.283 0 0 0 585.913 36.133 A 287.369 287.369 0 0 0 585.547 42.725 Q 589.697 41.943 594.019 41.577 Q 598.34 41.211 603.027 41.113 Q 602.588 42.92 602.319 44.727 A 25.21 25.21 0 0 0 602.051 48.437 Q 602.051 50.871 602.7 53.846 A 37.698 37.698 0 0 0 602.93 54.834 A 201.173 201.173 0 0 0 594.238 51.489 A 125.249 125.249 0 0 0 585.547 48.73 A 233.465 233.465 0 0 0 585.629 54.842 A 262.154 262.154 0 0 0 585.693 56.958 Q 585.84 61.23 586.23 65.527 A 200.094 200.094 0 0 0 603.027 62.524 A 210.817 210.817 0 0 0 619.669 58.08 A 229.776 229.776 0 0 0 620.215 57.91 A 91.409 91.409 0 0 0 619.376 63.334 A 82.839 82.839 0 0 0 619.287 64.087 A 52.99 52.99 0 0 0 618.972 68.265 A 45.609 45.609 0 0 0 618.945 69.824 A 49.396 49.396 0 0 0 619.843 79.069 A 55.318 55.318 0 0 0 620.117 80.42 Q 611.816 78.564 603.735 77.246 A 266.273 266.273 0 0 0 587.354 75.098 Z" id="7" vector-effect="non-scaling-stroke"/><path d="M 673.73 12.939 L 666.211 12.012 Q 667.969 11.475 669.751 10.986 A 333.024 333.024 0 0 0 673.242 10.01 Q 672.998 8.643 672.778 7.3 Q 672.559 5.957 672.217 4.541 A 226.868 226.868 0 0 0 678.027 6.201 A 67.845 67.845 0 0 0 683.936 7.52 Q 693.359 5.566 702.759 4.541 Q 712.158 3.516 721.826 3.516 A 176.563 176.563 0 0 1 730.127 3.711 A 188.476 188.476 0 0 1 738.525 4.297 A 71.239 71.239 0 0 0 736.133 22.803 Q 736.133 26.318 736.426 29.736 Q 717.969 21.924 698.34 17.432 Q 697.9 21.729 697.607 26.074 A 194.017 194.017 0 0 0 697.217 34.717 A 97.152 97.152 0 0 1 707.129 33.008 Q 712.061 32.422 717.041 32.324 A 38.108 38.108 0 0 0 715.918 41.406 Q 715.918 43.213 716.089 45.02 Q 716.26 46.826 716.65 48.633 A 107.987 107.987 0 0 0 707.031 44.531 Q 702.148 42.725 697.119 41.309 Q 697.119 46.484 697.339 52.002 Q 697.559 57.52 698.047 63.135 A 192.442 192.442 0 0 0 727.897 56.575 A 221.086 221.086 0 0 0 736.426 53.809 Q 735.84 57.471 735.498 61.035 A 75.154 75.154 0 0 0 735.156 68.213 Q 735.156 71.533 735.449 74.805 A 58.587 58.587 0 0 0 736.426 81.396 A 277.156 277.156 0 0 0 717.969 77.368 Q 708.74 75.684 699.219 74.707 Q 699.219 75 699.268 75.366 A 4.073 4.073 0 0 0 699.333 75.735 A 3.109 3.109 0 0 0 699.414 76.025 A 435.133 435.133 0 0 1 694.108 76.058 A 423.213 423.213 0 0 1 691.479 76.05 A 180.66 180.66 0 0 0 690.357 76.046 A 177.41 177.41 0 0 0 683.667 76.172 Q 679.785 76.318 675.977 76.807 A 55.61 55.61 0 0 0 668.408 78.32 A 170.854 170.854 0 0 0 673.511 55.835 Q 675.244 44.678 675.244 33.398 Q 675.244 28.271 674.878 23.169 Q 674.512 18.066 673.73 12.939 Z" id="9" vector-effect="non-scaling-stroke"/><path d="M 772.119 17.334 L 792.822 51.123 Q 792.529 48.779 792.432 46.436 A 111.423 111.423 0 0 1 792.334 41.797 Q 792.334 34.668 793.994 27.808 A 52.429 52.429 0 0 1 797.973 16.951 A 60.723 60.723 0 0 1 799.414 14.209 A 53.341 53.341 0 0 0 808.047 18.828 A 47.629 47.629 0 0 0 810.986 19.946 A 47.966 47.966 0 0 0 822.502 22.334 A 53.698 53.698 0 0 0 823.535 22.412 A 51.021 51.021 0 0 0 815.63 34.325 A 47.152 47.152 0 0 0 814.355 37.28 A 46.09 46.09 0 0 0 811.292 51.957 A 53.532 53.532 0 0 0 811.23 54.541 A 59.914 59.914 0 0 0 812.061 64.404 A 62.351 62.351 0 0 0 814.223 73.232 A 69.717 69.717 0 0 0 814.648 74.512 Q 810.938 74.609 806.934 75.195 Q 803.522 75.731 799.381 76.778 A 111.596 111.596 0 0 0 799.365 76.782 Q 795.215 77.832 791.211 79.736 A 91.435 91.435 0 0 0 783.643 64.453 A 104.296 104.296 0 0 0 773.438 50.635 Q 773.912 61.825 771.441 73.623 A 109.22 109.22 0 0 1 770.117 79.199 A 66.478 66.478 0 0 0 762.364 77.248 Q 758.289 76.494 754.573 76.423 A 40.195 40.195 0 0 0 753.809 76.416 Q 751.416 76.416 748.584 76.709 A 89.058 89.058 0 0 0 745.654 77.063 A 109.465 109.465 0 0 0 742.529 77.539 A 51.541 51.541 0 0 0 750.703 65.244 A 47.866 47.866 0 0 0 751.831 62.646 A 45.27 45.27 0 0 0 754.876 49.21 A 53.915 53.915 0 0 0 755.029 45.117 A 53.009 53.009 0 0 0 754.771 39.973 A 59.51 59.51 0 0 0 754.639 38.745 A 61.893 61.893 0 0 0 753.894 34.063 A 73.077 73.077 0 0 0 753.418 31.836 Q 750.391 29.541 747.339 27.417 A 218.099 218.099 0 0 0 741.113 23.242 Q 744.38 23.526 747.273 23.526 A 54.743 54.743 0 0 0 749.39 23.486 Q 753.174 23.34 756.763 22.632 A 52.211 52.211 0 0 0 763.118 20.944 A 57.857 57.857 0 0 0 764.038 20.63 A 83.367 83.367 0 0 0 767.902 19.159 A 114.517 114.517 0 0 0 772.119 17.334 Z" id="10" vector-effect="non-scaling-stroke"/><path d="M 891.064 59.619 L 895.264 56.934 A 33.555 33.555 0 0 1 894.494 60.72 A 26.276 26.276 0 0 1 893.579 63.525 A 25.568 25.568 0 0 1 891.665 67.434 A 22.432 22.432 0 0 1 890.771 68.799 A 181.721 181.721 0 0 0 890.79 71.332 A 224.181 224.181 0 0 0 890.845 74.048 Q 890.901 76.197 891.057 77.903 A 37.183 37.183 0 0 0 891.162 78.906 L 879.492 80.518 L 877.881 77.832 Q 874.072 79.102 870.215 79.565 A 65.529 65.529 0 0 1 865.546 79.964 A 55.226 55.226 0 0 1 862.891 80.029 A 53.8 53.8 0 0 1 854.185 79.352 A 43.831 43.831 0 0 1 848.389 78.003 A 35.215 35.215 0 0 1 838.443 73.199 A 32.978 32.978 0 0 1 836.743 71.924 A 33.429 33.429 0 0 1 828.981 62.937 A 38.59 38.59 0 0 1 828.32 61.792 A 41.421 41.421 0 0 1 824.991 53.859 A 53.884 53.884 0 0 1 823.486 47.607 A 31.363 31.363 0 0 0 825.708 48.291 A 60.297 60.297 0 0 0 827.881 48.828 A 33.723 33.723 0 0 1 829.901 40.375 A 28.879 28.879 0 0 1 832.642 35.01 A 33.579 33.579 0 0 1 842.676 25.073 A 44.383 44.383 0 0 1 852.035 20.525 A 54.302 54.302 0 0 1 856.885 19.067 Q 864.941 17.041 874.268 17.041 A 107.23 107.23 0 0 1 879.868 17.194 A 130.41 130.41 0 0 1 883.447 17.432 A 141.147 141.147 0 0 1 888.599 17.944 A 192.284 192.284 0 0 1 894.287 18.701 A 39.583 39.583 0 0 0 892.529 25.757 A 47.619 47.619 0 0 0 891.992 32.91 A 43.693 43.693 0 0 0 892.046 35.035 A 54.974 54.974 0 0 0 892.163 36.816 A 34.476 34.476 0 0 0 892.343 38.487 Q 892.535 39.96 892.871 41.699 A 61.85 61.85 0 0 0 889.819 39.771 A 47.691 47.691 0 0 0 886.914 38.184 A 43.369 43.369 0 0 0 883.813 36.776 A 34.024 34.024 0 0 0 881.519 35.938 A 33.488 33.488 0 0 0 878.72 35.158 A 26.745 26.745 0 0 0 876.66 34.766 A 32.243 32.243 0 0 0 874.171 34.489 A 25.828 25.828 0 0 0 872.363 34.424 A 33.583 33.583 0 0 0 865.251 35.206 A 37.498 37.498 0 0 0 864.502 35.376 Q 860.498 36.328 856.934 38.184 A 27.587 27.587 0 0 0 850.562 42.725 A 18.18 18.18 0 0 0 846.289 48.926 A 49.654 49.654 0 0 0 849.283 48.361 A 54.199 54.199 0 0 0 849.487 48.315 A 36.889 36.889 0 0 0 852.783 47.412 A 15.787 15.787 0 0 0 852.567 48.543 A 12.25 12.25 0 0 0 852.466 49.414 A 27.573 27.573 0 0 0 852.421 50.076 Q 852.403 50.402 852.397 50.692 A 14.429 14.429 0 0 0 852.393 51.025 A 18.471 18.471 0 0 0 852.678 54.355 A 13.506 13.506 0 0 0 853.784 57.812 A 13.214 13.214 0 0 0 857.642 62.598 A 16.408 16.408 0 0 0 861.918 64.955 A 19.631 19.631 0 0 0 863.428 65.454 A 24.814 24.814 0 0 0 868.683 66.347 A 29.077 29.077 0 0 0 870.557 66.406 L 872.461 66.406 Q 870.654 61.914 869.507 57.422 A 94.348 94.348 0 0 1 868.102 50.945 A 111.592 111.592 0 0 1 867.578 47.803 A 81.528 81.528 0 0 0 870.081 48.236 A 64.91 64.91 0 0 0 872.412 48.56 Q 874.509 48.81 876.223 48.827 A 24.899 24.899 0 0 0 876.465 48.828 A 36.735 36.735 0 0 0 884.621 47.889 A 40.525 40.525 0 0 0 884.888 47.827 A 78.514 78.514 0 0 0 889.872 46.477 A 99.127 99.127 0 0 0 893.994 45.117 A 97.527 97.527 0 0 0 892.28 52.038 A 89.345 89.345 0 0 0 892.187 52.49 A 80.796 80.796 0 0 0 891.064 59.619 Z" id="11" vector-effect="non-scaling-stroke"/><path d="M 929.883 18.018 Q 928.467 26.172 927.783 34.497 A 205.471 205.471 0 0 0 927.1 51.318 Q 927.1 57.715 927.466 64.014 A 161.612 161.612 0 0 0 928.662 76.416 A 46.522 46.522 0 0 1 925 76.27 A 45.483 45.483 0 0 0 923.047 76.16 A 60.281 60.281 0 0 0 920.898 76.123 A 71.38 71.38 0 0 0 913.705 76.497 A 78.949 78.949 0 0 0 912.646 76.611 Q 908.398 77.1 903.564 78.027 Q 904.932 71.143 905.762 63.916 Q 906.592 56.689 906.592 49.219 A 122.912 122.912 0 0 0 905.957 36.743 A 109.055 109.055 0 0 0 903.955 24.316 Q 907.178 23.975 910.205 23.413 Q 913.232 22.852 916.357 22.07 Q 919.482 21.289 922.803 20.288 Q 926.123 19.287 929.883 18.018 Z" id="12" vector-effect="non-scaling-stroke"/><path d="M 966.26 17.334 L 986.963 51.123 Q 986.67 48.779 986.572 46.436 A 111.423 111.423 0 0 1 986.475 41.797 Q 986.475 34.668 988.135 27.808 A 52.429 52.429 0 0 1 992.114 16.951 A 60.723 60.723 0 0 1 993.555 14.209 A 53.341 53.341 0 0 0 1002.188 18.828 A 47.629 47.629 0 0 0 1005.127 19.946 A 47.966 47.966 0 0 0 1016.643 22.334 A 53.698 53.698 0 0 0 1017.676 22.412 A 51.021 51.021 0 0 0 1009.771 34.325 A 47.152 47.152 0 0 0 1008.496 37.28 A 46.09 46.09 0 0 0 1005.433 51.957 A 53.532 53.532 0 0 0 1005.371 54.541 A 59.914 59.914 0 0 0 1006.201 64.404 A 62.351 62.351 0 0 0 1008.364 73.232 A 69.717 69.717 0 0 0 1008.789 74.512 Q 1005.078 74.609 1001.074 75.195 Q 997.663 75.731 993.522 76.778 A 111.596 111.596 0 0 0 993.506 76.782 Q 989.355 77.832 985.352 79.736 A 91.435 91.435 0 0 0 977.783 64.453 A 104.296 104.296 0 0 0 967.578 50.635 Q 968.053 61.825 965.581 73.623 A 109.22 109.22 0 0 1 964.258 79.199 A 66.478 66.478 0 0 0 956.505 77.248 Q 952.43 76.494 948.714 76.423 A 40.195 40.195 0 0 0 947.949 76.416 Q 945.557 76.416 942.725 76.709 A 89.058 89.058 0 0 0 939.795 77.063 A 109.465 109.465 0 0 0 936.67 77.539 A 51.541 51.541 0 0 0 944.844 65.244 A 47.866 47.866 0 0 0 945.972 62.646 A 45.27 45.27 0 0 0 949.017 49.21 A 53.915 53.915 0 0 0 949.17 45.117 A 53.009 53.009 0 0 0 948.912 39.973 A 59.51 59.51 0 0 0 948.779 38.745 A 61.893 61.893 0 0 0 948.034 34.063 A 73.077 73.077 0 0 0 947.559 31.836 Q 944.531 29.541 941.479 27.417 A 218.099 218.099 0 0 0 935.254 23.242 Q 938.521 23.526 941.414 23.526 A 54.743 54.743 0 0 0 943.53 23.486 Q 947.314 23.34 950.903 22.632 A 52.211 52.211 0 0 0 957.259 20.944 A 57.857 57.857 0 0 0 958.179 20.63 A 83.367 83.367 0 0 0 962.042 19.159 A 114.517 114.517 0 0 0 966.26 17.334 Z" id="13" vector-effect="non-scaling-stroke"/><path d="M 1049.561 75.098 L 1049.756 76.025 Q 1044.727 76.025 1040.723 76.05 Q 1036.719 76.074 1033.276 76.294 Q 1029.834 76.514 1026.733 76.978 A 55.957 55.957 0 0 0 1021.582 78.005 A 62.942 62.942 0 0 0 1020.361 78.32 A 128.057 128.057 0 0 0 1024.677 61.492 A 117.441 117.441 0 0 0 1024.927 60.083 A 107.02 107.02 0 0 0 1026.465 42.041 Q 1026.465 33.887 1025.146 25.537 A 131.224 131.224 0 0 0 1019.141 24.805 L 1018.945 24.805 L 1024.756 23.34 L 1023.73 18.408 A 147.766 147.766 0 0 0 1029.395 19.922 A 102.513 102.513 0 0 0 1035.059 21.143 A 194.049 194.049 0 0 1 1051.587 18.823 A 175.048 175.048 0 0 1 1068.457 18.018 A 146.336 146.336 0 0 1 1076.001 18.213 A 467.238 467.238 0 0 1 1079.926 18.433 A 575.696 575.696 0 0 1 1084.131 18.701 Q 1083.105 22.363 1082.568 26.025 Q 1082.031 29.687 1082.031 33.545 Q 1082.031 34.717 1082.104 36.255 Q 1082.178 37.793 1082.422 39.6 Q 1074.072 36.426 1065.723 33.911 Q 1057.373 31.396 1048.73 29.541 A 132.283 132.283 0 0 0 1048.12 36.133 A 287.369 287.369 0 0 0 1047.754 42.725 Q 1051.904 41.943 1056.226 41.577 Q 1060.547 41.211 1065.234 41.113 Q 1064.795 42.92 1064.526 44.727 A 25.21 25.21 0 0 0 1064.258 48.437 Q 1064.258 50.871 1064.907 53.846 A 37.698 37.698 0 0 0 1065.137 54.834 A 201.173 201.173 0 0 0 1056.445 51.489 A 125.249 125.249 0 0 0 1047.754 48.73 A 233.465 233.465 0 0 0 1047.836 54.842 A 262.154 262.154 0 0 0 1047.9 56.958 Q 1048.047 61.23 1048.438 65.527 A 200.094 200.094 0 0 0 1065.234 62.524 A 210.817 210.817 0 0 0 1081.876 58.08 A 229.776 229.776 0 0 0 1082.422 57.91 A 91.409 91.409 0 0 0 1081.583 63.334 A 82.839 82.839 0 0 0 1081.494 64.087 A 52.99 52.99 0 0 0 1081.179 68.265 A 45.609 45.609 0 0 0 1081.152 69.824 A 49.396 49.396 0 0 0 1082.05 79.069 A 55.318 55.318 0 0 0 1082.324 80.42 Q 1074.023 78.564 1065.942 77.246 A 266.273 266.273 0 0 0 1049.561 75.098 Z" id="14" vector-effect="non-scaling-stroke"/><path d="M 1120.264 75.098 L 1120.459 76.025 Q 1115.43 76.025 1111.426 76.05 Q 1107.422 76.074 1103.979 76.294 Q 1100.537 76.514 1097.437 76.978 A 55.957 55.957 0 0 0 1092.285 78.005 A 62.942 62.942 0 0 0 1091.064 78.32 A 128.057 128.057 0 0 0 1095.38 61.492 A 117.441 117.441 0 0 0 1095.63 60.083 A 107.02 107.02 0 0 0 1097.168 42.041 Q 1097.168 33.887 1095.85 25.537 A 131.224 131.224 0 0 0 1089.844 24.805 L 1089.648 24.805 L 1095.459 23.34 L 1094.434 18.408 A 147.766 147.766 0 0 0 1100.098 19.922 A 102.513 102.513 0 0 0 1105.762 21.143 A 194.049 194.049 0 0 1 1122.29 18.823 A 175.048 175.048 0 0 1 1139.16 18.018 A 146.336 146.336 0 0 1 1146.704 18.213 A 467.238 467.238 0 0 1 1150.629 18.433 A 575.696 575.696 0 0 1 1154.834 18.701 Q 1153.809 22.363 1153.271 26.025 Q 1152.734 29.687 1152.734 33.545 Q 1152.734 34.717 1152.808 36.255 Q 1152.881 37.793 1153.125 39.6 Q 1144.775 36.426 1136.426 33.911 Q 1128.076 31.396 1119.434 29.541 A 132.283 132.283 0 0 0 1118.823 36.133 A 287.369 287.369 0 0 0 1118.457 42.725 Q 1122.607 41.943 1126.929 41.577 Q 1131.25 41.211 1135.938 41.113 Q 1135.498 42.92 1135.229 44.727 A 25.21 25.21 0 0 0 1134.961 48.437 Q 1134.961 50.871 1135.61 53.846 A 37.698 37.698 0 0 0 1135.84 54.834 A 201.173 201.173 0 0 0 1127.148 51.489 A 125.249 125.249 0 0 0 1118.457 48.73 A 233.465 233.465 0 0 0 1118.539 54.842 A 262.154 262.154 0 0 0 1118.604 56.958 Q 1118.75 61.23 1119.141 65.527 A 200.094 200.094 0 0 0 1135.938 62.524 A 210.817 210.817 0 0 0 1152.579 58.08 A 229.776 229.776 0 0 0 1153.125 57.91 A 91.409 91.409 0 0 0 1152.287 63.334 A 82.839 82.839 0 0 0 1152.197 64.087 A 52.99 52.99 0 0 0 1151.883 68.265 A 45.609 45.609 0 0 0 1151.855 69.824 A 49.396 49.396 0 0 0 1152.753 79.069 A 55.318 55.318 0 0 0 1153.027 80.42 Q 1144.727 78.564 1136.646 77.246 A 266.273 266.273 0 0 0 1120.264 75.098 Z" id="15" vector-effect="non-scaling-stroke"/><path d="M 1172.949 38.33 L 1172.949 36.523 A 140.524 140.524 0 0 0 1167.725 38.281 A 85.366 85.366 0 0 0 1162.549 40.332 A 36.366 36.366 0 0 0 1163.635 35.915 A 26.482 26.482 0 0 0 1164.062 31.299 A 24.475 24.475 0 0 0 1163.488 25.932 A 22.222 22.222 0 0 0 1163.184 24.731 A 23.583 23.583 0 0 0 1160.645 18.896 Q 1171.143 17.432 1179.224 16.919 A 281.742 281.742 0 0 1 1185.963 16.568 Q 1189.052 16.447 1191.833 16.416 A 166.402 166.402 0 0 1 1193.652 16.406 A 170.025 170.025 0 0 1 1196.384 16.43 Q 1197.782 16.452 1199.337 16.496 A 294.54 294.54 0 0 1 1200.391 16.528 A 87.31 87.31 0 0 1 1207.703 17.079 A 95.19 95.19 0 0 1 1208.203 17.139 A 75.277 75.277 0 0 1 1216.187 18.555 A 36.441 36.441 0 0 1 1221.347 20.153 A 31.394 31.394 0 0 1 1223.486 21.094 A 20.713 20.713 0 0 1 1227.767 23.839 A 18.583 18.583 0 0 1 1229.175 25.146 Q 1231.543 27.588 1232.373 31.006 Q 1233.496 30.469 1234.57 29.932 A 29.264 29.264 0 0 0 1236.209 29.044 A 33.513 33.513 0 0 0 1236.768 28.711 Q 1236.182 32.227 1234.814 35.718 Q 1233.447 39.209 1231.421 42.48 A 42.493 42.493 0 0 1 1226.733 48.682 Q 1224.072 51.611 1220.947 54.102 A 100.257 100.257 0 0 0 1234.203 70.942 A 91.643 91.643 0 0 0 1236.963 73.633 A 68.691 68.691 0 0 0 1223.12 76.099 Q 1216.406 78.027 1209.473 81.396 A 63.278 63.278 0 0 0 1206.186 66.556 A 57.158 57.158 0 0 0 1204.346 62.012 A 40.144 40.144 0 0 1 1200.391 62.695 A 33.868 33.868 0 0 1 1196.775 62.936 A 37.333 37.333 0 0 1 1196.24 62.939 L 1194.604 62.939 Q 1193.799 62.939 1192.969 62.842 A 386.924 386.924 0 0 0 1193.555 77.93 Q 1191.992 77.686 1190.43 77.612 A 66.455 66.455 0 0 0 1188.259 77.545 A 57.179 57.179 0 0 0 1187.451 77.539 A 49.63 49.63 0 0 0 1182.053 77.849 A 66.402 66.402 0 0 0 1176.855 78.638 Q 1171.094 79.736 1164.453 81.934 A 153.029 153.029 0 0 0 1168.726 68.555 A 122.169 122.169 0 0 0 1171.533 55.127 Q 1168.213 52.93 1165.845 50.83 A 65.561 65.561 0 0 1 1164.477 49.585 Q 1163.095 48.288 1162.256 47.314 A 95.272 95.272 0 0 0 1167.052 48.547 A 103.569 103.569 0 0 0 1167.212 48.584 Q 1169.775 49.17 1172.363 49.609 A 107.677 107.677 0 0 0 1172.949 38.33 Z M 1215.674 35.889 L 1215.674 35.84 L 1215.771 35.84 A 18.961 18.961 0 0 0 1214.039 34.156 A 17.135 17.135 0 0 0 1213.745 33.911 Q 1212.695 33.057 1211.328 32.471 A 11.622 11.622 0 0 0 1209.851 31.958 Q 1209.058 31.738 1208.154 31.592 Q 1206.348 31.299 1203.857 31.299 Q 1202.362 31.299 1200.437 31.428 A 82.545 82.545 0 0 0 1199.219 31.519 A 500.196 500.196 0 0 0 1196.411 31.757 A 643.239 643.239 0 0 0 1193.359 32.031 A 1845.872 1845.872 0 0 0 1193.091 41.382 A 353.585 353.585 0 0 0 1192.969 50.635 A 26.206 26.206 0 0 0 1197.834 49.436 A 23.995 23.995 0 0 0 1198.486 49.194 A 17.546 17.546 0 0 0 1202.139 47.281 A 15.862 15.862 0 0 0 1203.076 46.582 A 13.314 13.314 0 0 0 1206.372 42.651 A 13.394 13.394 0 0 0 1207.59 39.613 A 17.51 17.51 0 0 0 1208.057 37.207 A 654.135 654.135 0 0 1 1211.841 36.621 A 95.127 95.127 0 0 0 1215.771 35.937 Q 1215.714 35.937 1215.69 35.92 A 0.037 0.037 0 0 1 1215.674 35.889 Z" id="16" vector-effect="non-scaling-stroke"/></g></svg>