<svg width="1087.549" height="84.18" viewBox="0 0 1087.549 84.18" xmlns="http://www.w3.org/2000/svg"><g id="svgGroup" stroke-linecap="round" fill-rule="evenodd" font-size="9pt" stroke="#000" stroke-width="0.25mm" style="stroke:#000;stroke-width:0.25mm;"><path d="M 10.303 80.078 L 11.475 77.881 A 112.389 112.389 0 0 0 8.105 78.931 Q 6.396 79.492 4.688 80.078 A 214.777 214.777 0 0 0 9.741 62.476 A 160.266 160.266 0 0 0 12.988 44.58 A 59.567 59.567 0 0 1 8.88 41.715 A 49.146 49.146 0 0 1 6.689 39.941 Q 3.906 37.549 2.1 35.205 A 94.427 94.427 0 0 0 6.968 36.564 A 103.614 103.614 0 0 0 7.69 36.743 A 92.346 92.346 0 0 0 13.672 37.988 A 153.74 153.74 0 0 0 14.038 32.031 Q 14.16 29.102 14.16 26.123 L 14.16 24.512 Q 11.182 25.488 8.252 26.611 Q 5.322 27.734 2.588 29.102 Q 3.32 26.367 3.711 23.779 Q 4.102 21.191 4.102 18.701 A 30.615 30.615 0 0 0 3.027 10.547 A 36.752 36.752 0 0 0 0 2.979 A 364.236 364.236 0 0 1 5.408 2.179 A 268.247 268.247 0 0 1 10.303 1.538 A 281.142 281.142 0 0 1 14.777 1.031 A 222.251 222.251 0 0 1 18.921 0.635 Q 22.9 0.293 26.489 0.146 A 174.203 174.203 0 0 1 33.594 0 A 144.563 144.563 0 0 1 36.359 0.028 Q 37.769 0.055 39.326 0.108 A 242.238 242.238 0 0 1 40.381 0.146 A 96.361 96.361 0 0 1 46.999 0.637 A 107.782 107.782 0 0 1 48.267 0.781 Q 52.344 1.27 56.421 2.197 A 41.468 41.468 0 0 1 63.885 4.636 A 38.554 38.554 0 0 1 64.111 4.736 A 28.561 28.561 0 0 1 70.059 8.278 A 26.589 26.589 0 0 1 70.605 8.716 Q 73.486 11.084 75.098 14.404 A 23.755 23.755 0 0 0 76.408 13.596 A 28.956 28.956 0 0 0 77.222 13.037 Q 78.32 12.256 79.395 11.426 Q 79.639 12.744 79.712 14.062 A 47.189 47.189 0 0 1 79.781 15.985 A 41.926 41.926 0 0 1 79.785 16.602 A 31.079 31.079 0 0 1 78.882 24.072 A 35.541 35.541 0 0 1 76.343 31.104 Q 74.707 34.473 72.412 37.524 Q 70.117 40.576 67.285 43.115 A 20.904 20.904 0 0 1 70.011 44.99 A 16.726 16.726 0 0 1 71.777 46.655 A 23.932 23.932 0 0 1 73.973 49.432 A 20.581 20.581 0 0 1 74.78 50.732 A 23.294 23.294 0 0 1 76.003 53.191 A 18.878 18.878 0 0 1 76.611 54.834 Q 77.179 56.625 77.454 58.103 A 18.758 18.758 0 0 1 77.515 58.447 Q 77.782 60.05 77.831 61.073 A 11.131 11.131 0 0 1 77.832 61.084 A 381.339 381.339 0 0 1 77.843 61.326 Q 77.878 62.07 77.881 62.193 A 0.786 0.786 0 0 1 77.881 62.207 Q 77.783 66.26 76.196 69.458 Q 74.609 72.656 71.851 75.098 A 25.402 25.402 0 0 1 67.38 78.241 A 30.368 30.368 0 0 1 65.356 79.272 A 43.085 43.085 0 0 1 59.133 81.579 A 49.502 49.502 0 0 1 57.251 82.08 A 68.078 68.078 0 0 1 49.415 83.512 A 76.089 76.089 0 0 1 48.071 83.667 A 91.375 91.375 0 0 1 38.379 84.18 Q 34.57 84.18 30.762 83.887 A 114.309 114.309 0 0 1 23.364 83.081 A 86.503 86.503 0 0 1 17.289 81.997 A 78.804 78.804 0 0 1 16.455 81.812 A 63.823 63.823 0 0 1 12.495 80.78 A 52.627 52.627 0 0 1 10.303 80.078 Z M 35.503 53.127 A 37.318 37.318 0 0 0 41.602 53.613 A 34.217 34.217 0 0 0 50.659 52.393 A 40.465 40.465 0 0 0 59.277 48.926 A 16.067 16.067 0 0 1 59.382 49.29 A 14.172 14.172 0 0 1 59.717 50.83 A 12.766 12.766 0 0 1 59.8 51.456 A 10.592 10.592 0 0 1 59.863 52.588 A 12.013 12.013 0 0 1 59.638 54.973 A 8.573 8.573 0 0 1 58.325 58.154 A 12.11 12.11 0 0 1 54.419 61.792 A 17.465 17.465 0 0 1 49.243 63.794 A 28.647 28.647 0 0 1 47.43 64.129 A 23.696 23.696 0 0 1 43.896 64.404 A 32.614 32.614 0 0 1 42.727 64.383 A 37.766 37.766 0 0 1 39.6 64.136 A 23.173 23.173 0 0 1 37.734 63.833 A 28.721 28.721 0 0 1 34.863 63.086 A 267.119 267.119 0 0 1 34.717 58.057 A 259.099 259.099 0 0 1 34.668 52.979 A 34.01 34.01 0 0 0 35.503 53.127 Z M 35.205 19.727 L 35.059 19.727 Q 34.912 24.561 34.839 29.321 A 1992.722 1992.722 0 0 1 34.668 38.916 Q 38.184 38.379 40.991 37.183 A 15.827 15.827 0 0 0 45.898 33.936 A 15.11 15.11 0 0 0 48.687 30.165 A 18.069 18.069 0 0 0 49.292 28.906 Q 50.586 25.928 51.074 21.826 L 55.469 21.094 A 16.089 16.089 0 0 0 51.754 19.535 A 18.697 18.697 0 0 0 50.781 19.287 A 23.595 23.595 0 0 0 47.375 18.784 A 28.863 28.863 0 0 0 45.166 18.701 A 57.132 57.132 0 0 0 44.258 18.708 Q 43.539 18.719 42.944 18.75 A 29.872 29.872 0 0 0 41.525 18.858 A 34.835 34.835 0 0 0 40.942 18.921 A 68.709 68.709 0 0 0 39.968 19.042 Q 39.471 19.107 38.922 19.185 A 115.898 115.898 0 0 0 38.55 19.238 Q 37.207 19.434 35.205 19.727 Z" id="0" vector-effect="non-scaling-stroke"/><path d="M 154.492 19.092 L 157.861 19.092 A 76.39 76.39 0 0 0 153.48 29.114 A 70.545 70.545 0 0 0 153.247 29.785 Q 151.416 35.156 150.586 40.82 A 1943.78 1943.78 0 0 1 155.005 39.844 Q 157.227 39.355 159.473 38.818 A 68.521 68.521 0 0 0 158.601 48.914 A 76.02 76.02 0 0 0 158.594 50 Q 158.594 52.783 158.813 55.591 A 65.793 65.793 0 0 0 159.473 61.084 A 585.806 585.806 0 0 0 156.053 60.951 A 522.168 522.168 0 0 0 154.956 60.913 Q 152.783 60.84 150.586 60.693 A 86.928 86.928 0 0 0 151.978 67.92 A 74.694 74.694 0 0 0 154.102 75.195 A 303.184 303.184 0 0 0 153.131 75.162 Q 152.368 75.137 151.758 75.122 A 298.545 298.545 0 0 1 150.945 75.101 Q 150.45 75.087 150.024 75.073 A 257.458 257.458 0 0 1 149.298 75.049 A 197.902 197.902 0 0 1 148.633 75.024 A 33.029 33.029 0 0 0 147.363 75 Q 143.115 75 138.843 75.757 A 79.017 79.017 0 0 0 134.369 76.691 A 106.217 106.217 0 0 0 129.492 77.979 A 207.292 207.292 0 0 1 128.662 67.847 Q 128.369 62.744 128.369 57.422 A 113.919 113.919 0 0 1 121.24 55.566 A 337.878 337.878 0 0 1 114.258 53.418 Q 114.16 59.131 114.038 64.844 A 547.127 547.127 0 0 1 113.672 76.318 Q 109.229 75.537 105.811 75.171 Q 102.393 74.805 99.072 74.805 A 53.395 53.395 0 0 0 93.632 75.103 Q 89.391 75.539 84.375 76.611 A 100.407 100.407 0 0 0 90.063 59.277 Q 92.09 50.439 92.09 41.016 Q 92.09 35.254 91.309 29.468 A 90.403 90.403 0 0 0 89.459 19.856 A 102.17 102.17 0 0 0 88.867 17.578 Q 91.992 18.457 95.02 19.141 Q 98.047 19.824 101.074 20.312 Q 104.102 20.801 107.227 21.069 Q 110.352 21.338 113.672 21.387 A 1059.265 1059.265 0 0 1 114.258 46.289 A 716.091 716.091 0 0 0 121.558 45.483 A 378.316 378.316 0 0 0 128.76 44.58 Q 129.297 37.305 130.469 29.98 A 128.698 128.698 0 0 1 133.524 16.033 A 141.005 141.005 0 0 1 133.789 15.088 A 66.666 66.666 0 0 0 137.163 16.349 A 54.52 54.52 0 0 0 139.087 16.968 Q 141.602 17.725 144.092 18.188 A 51.866 51.866 0 0 0 149.121 18.872 A 59.381 59.381 0 0 0 152.751 19.07 A 69.535 69.535 0 0 0 154.492 19.092 Z" id="1" vector-effect="non-scaling-stroke"/><path d="M 242.676 56.494 Q 240.625 57.471 238.623 58.374 A 112.263 112.263 0 0 1 234.57 60.107 A 129.451 129.451 0 0 0 244.482 75.391 A 69.585 69.585 0 0 0 232.635 76.374 A 62.946 62.946 0 0 0 230.029 76.88 A 70.098 70.098 0 0 0 219.592 80.034 A 81.183 81.183 0 0 0 216.064 81.494 A 8.686 8.686 0 0 0 216.724 78.882 A 30.468 30.468 0 0 0 216.846 76.123 Q 216.846 73.779 216.406 70.972 A 45.949 45.949 0 0 0 215.685 67.357 A 54.905 54.905 0 0 0 215.088 65.088 A 49.998 49.998 0 0 1 210.986 65.503 A 67.404 67.404 0 0 1 206.982 65.625 A 55.267 55.267 0 0 1 200.171 65.21 A 35.705 35.705 0 0 1 193.75 63.818 Q 192.92 67.432 192.236 71.216 A 821.657 821.657 0 0 0 190.891 78.879 A 891.932 891.932 0 0 0 190.869 79.004 Q 188.379 77.734 185.4 76.709 A 49.582 49.582 0 0 0 183.025 76.001 Q 181.398 75.558 179.517 75.146 A 32.162 32.162 0 0 0 173.84 74.44 A 36.592 36.592 0 0 0 172.461 74.414 A 42.429 42.429 0 0 0 168.127 74.645 A 51.41 51.41 0 0 0 165.723 74.951 Q 162.158 75.488 157.861 76.709 A 107.607 107.607 0 0 0 164.087 70.044 Q 166.992 66.65 169.409 63.501 A 148.051 148.051 0 0 0 171.692 60.449 A 114.198 114.198 0 0 0 173.706 57.593 Q 175.586 54.834 176.855 52.783 Q 175.439 51.074 174.243 49.121 A 44.767 44.767 0 0 1 172.517 46.027 A 50.774 50.774 0 0 1 171.973 44.922 Q 173.926 45.898 175.83 46.704 Q 177.734 47.51 179.59 48.193 A 232.049 232.049 0 0 1 184.326 40.234 Q 186.816 36.23 189.648 32.422 A 39.836 39.836 0 0 0 189.075 31.108 Q 188.769 30.439 188.407 29.7 A 70.963 70.963 0 0 0 188.159 29.199 A 117.503 117.503 0 0 0 186.722 26.421 A 133.075 133.075 0 0 0 186.206 25.464 Q 185.156 23.535 183.984 21.631 A 79.407 79.407 0 0 0 182.539 19.365 A 65.308 65.308 0 0 0 181.689 18.115 Q 186.377 19.385 191.089 20.117 A 92.477 92.477 0 0 0 200.488 21.094 A 54.341 54.341 0 0 1 206.104 17.065 A 48.092 48.092 0 0 1 212.256 13.818 Q 211.23 15.527 210.254 17.334 A 129.376 129.376 0 0 0 208.35 20.996 Q 210.791 20.752 213.281 20.435 A 71.983 71.983 0 0 0 217.126 19.835 A 81.993 81.993 0 0 0 218.457 19.58 A 211.332 211.332 0 0 0 222.412 32.422 A 222.472 222.472 0 0 0 227.051 44.727 A 162.763 162.763 0 0 0 231.323 42.212 A 65.467 65.467 0 0 0 235.547 39.404 A 107.39 107.39 0 0 0 237.482 45.345 A 86.846 86.846 0 0 0 238.818 48.828 A 56.533 56.533 0 0 0 240.904 53.369 A 44.676 44.676 0 0 0 242.676 56.494 Z M 209.961 51.318 A 144.19 144.19 0 0 0 206.226 43.628 A 166.685 166.685 0 0 0 201.855 35.791 A 187.94 187.94 0 0 0 197.809 47.913 A 215.253 215.253 0 0 0 196.582 52.197 A 15.689 15.689 0 0 0 198.315 52.295 L 200.049 52.295 Q 202.539 52.295 205.005 52.075 A 40.57 40.57 0 0 0 209.961 51.318 Z" id="2" vector-effect="non-scaling-stroke"/><path d="M 324.49 72.202 A 91.643 91.643 0 0 1 321.849 69.623 A 100.257 100.257 0 0 1 308.594 52.783 Q 311.719 50.293 314.38 47.363 A 42.493 42.493 0 0 0 319.067 41.162 Q 321.094 37.891 322.461 34.399 Q 323.828 30.908 324.414 27.393 A 33.513 33.513 0 0 1 323.856 27.725 A 29.264 29.264 0 0 1 322.217 28.613 Q 321.143 29.15 320.02 29.687 Q 319.189 26.27 316.821 23.828 A 18.583 18.583 0 0 0 315.414 22.52 A 20.713 20.713 0 0 0 311.133 19.775 A 31.394 31.394 0 0 0 308.993 18.835 A 36.441 36.441 0 0 0 303.833 17.236 A 75.277 75.277 0 0 0 295.85 15.82 A 95.19 95.19 0 0 0 295.35 15.761 A 87.31 87.31 0 0 0 288.037 15.21 A 294.54 294.54 0 0 0 286.983 15.178 Q 285.429 15.134 284.031 15.111 A 170.025 170.025 0 0 0 281.299 15.088 A 166.402 166.402 0 0 0 279.479 15.098 Q 276.699 15.128 273.609 15.25 A 281.742 281.742 0 0 0 266.87 15.601 Q 258.789 16.113 248.291 17.578 A 23.583 23.583 0 0 1 250.83 23.413 A 22.222 22.222 0 0 1 251.134 24.613 A 24.475 24.475 0 0 1 251.709 29.98 A 26.482 26.482 0 0 1 251.282 34.597 A 36.366 36.366 0 0 1 250.195 39.014 A 85.366 85.366 0 0 1 255.371 36.963 A 140.524 140.524 0 0 1 260.596 35.205 L 260.596 37.012 A 107.677 107.677 0 0 1 260.01 48.291 Q 257.422 47.852 254.858 47.266 A 103.569 103.569 0 0 1 254.698 47.229 A 95.272 95.272 0 0 1 249.902 45.996 Q 250.742 46.97 252.123 48.266 A 65.561 65.561 0 0 0 253.491 49.512 Q 255.859 51.611 259.18 53.809 A 122.169 122.169 0 0 1 256.372 67.236 A 153.029 153.029 0 0 1 252.1 80.615 Q 258.74 78.418 264.502 77.319 A 66.402 66.402 0 0 1 269.7 76.531 A 49.63 49.63 0 0 1 275.098 76.221 A 57.179 57.179 0 0 1 275.906 76.226 A 66.455 66.455 0 0 1 278.076 76.294 Q 279.639 76.367 281.201 76.611 A 386.924 386.924 0 0 1 280.615 61.523 Q 281.445 61.621 282.251 61.621 L 283.887 61.621 A 37.333 37.333 0 0 0 284.422 61.617 A 33.868 33.868 0 0 0 288.037 61.377 A 40.144 40.144 0 0 0 291.992 60.693 A 57.158 57.158 0 0 1 293.832 65.237 A 63.278 63.278 0 0 1 297.119 80.078 Q 304.053 76.709 310.767 74.78 A 68.691 68.691 0 0 1 324.372 72.332 M 303.32 34.57 L 303.32 34.521 L 303.418 34.521 A 18.961 18.961 0 0 0 301.685 32.837 A 17.135 17.135 0 0 0 301.392 32.593 Q 300.342 31.738 298.975 31.152 A 11.622 11.622 0 0 0 297.498 30.64 Q 296.704 30.42 295.801 30.273 Q 293.994 29.98 291.504 29.98 Q 290.009 29.98 288.084 30.109 A 82.545 82.545 0 0 0 286.865 30.2 A 500.196 500.196 0 0 0 284.058 30.438 A 643.239 643.239 0 0 0 281.006 30.713 A 1845.872 1845.872 0 0 0 280.737 40.063 A 353.585 353.585 0 0 0 280.615 49.316 A 26.206 26.206 0 0 0 285.48 48.117 A 23.995 23.995 0 0 0 286.133 47.876 A 17.546 17.546 0 0 0 289.785 45.962 A 15.862 15.862 0 0 0 290.723 45.264 A 13.314 13.314 0 0 0 294.019 41.333 A 13.394 13.394 0 0 0 295.237 38.295 A 17.51 17.51 0 0 0 295.703 35.889 A 654.135 654.135 0 0 1 299.487 35.303 A 95.127 95.127 0 0 0 303.418 34.619 Q 303.36 34.619 303.336 34.602 A 0.037 0.037 0 0 1 303.32 34.57 Z" id="3" vector-effect="non-scaling-stroke"/><path d="M 324.372 72.332 A 107.607 107.607 0 0 1 320.166 76.709 Q 324.463 75.488 328.027 74.951 A 51.41 51.41 0 0 1 330.432 74.645 A 42.429 42.429 0 0 1 334.766 74.414 A 36.592 36.592 0 0 1 336.144 74.44 A 32.162 32.162 0 0 1 341.821 75.146 Q 343.703 75.558 345.329 76.001 A 49.582 49.582 0 0 1 347.705 76.709 Q 350.684 77.734 353.174 79.004 A 891.932 891.932 0 0 1 353.195 78.879 A 821.657 821.657 0 0 1 354.541 71.216 Q 355.225 67.432 356.055 63.818 A 35.705 35.705 0 0 0 362.476 65.21 A 55.267 55.267 0 0 0 369.287 65.625 A 67.404 67.404 0 0 0 373.291 65.503 A 49.998 49.998 0 0 0 377.393 65.088 A 54.905 54.905 0 0 1 377.99 67.357 A 45.949 45.949 0 0 1 378.711 70.972 Q 379.15 73.779 379.15 76.123 A 30.468 30.468 0 0 1 379.028 78.882 A 8.686 8.686 0 0 1 378.369 81.494 A 81.183 81.183 0 0 1 381.897 80.034 A 70.098 70.098 0 0 1 392.334 76.88 A 62.946 62.946 0 0 1 394.94 76.374 A 69.585 69.585 0 0 1 406.787 75.391 A 129.451 129.451 0 0 1 396.875 60.107 A 112.263 112.263 0 0 0 400.928 58.374 Q 402.93 57.471 404.98 56.494 A 44.676 44.676 0 0 1 403.209 53.369 A 56.533 56.533 0 0 1 401.123 48.828 A 86.846 86.846 0 0 1 399.787 45.345 A 107.39 107.39 0 0 1 397.852 39.404 A 65.467 65.467 0 0 1 393.628 42.212 A 162.763 162.763 0 0 1 389.355 44.727 A 222.472 222.472 0 0 1 384.717 32.422 A 211.332 211.332 0 0 1 380.762 19.58 A 81.993 81.993 0 0 1 379.431 19.835 A 71.983 71.983 0 0 1 375.586 20.435 Q 373.096 20.752 370.654 20.996 A 129.376 129.376 0 0 1 372.559 17.334 Q 373.535 15.527 374.561 13.818 A 48.092 48.092 0 0 0 368.408 17.065 A 54.341 54.341 0 0 0 362.793 21.094 A 92.477 92.477 0 0 1 353.394 20.117 Q 348.682 19.385 343.994 18.115 A 65.308 65.308 0 0 1 344.843 19.365 A 79.407 79.407 0 0 1 346.289 21.631 Q 347.461 23.535 348.511 25.464 A 133.075 133.075 0 0 1 349.026 26.421 A 117.503 117.503 0 0 1 350.464 29.199 A 70.963 70.963 0 0 1 350.712 29.7 Q 351.074 30.439 351.38 31.108 A 39.836 39.836 0 0 1 351.953 32.422 Q 349.121 36.23 346.631 40.234 A 232.049 232.049 0 0 0 341.895 48.193 Q 340.039 47.51 338.135 46.704 Q 336.23 45.898 334.277 44.922 A 50.774 50.774 0 0 0 334.822 46.027 A 44.767 44.767 0 0 0 336.548 49.121 Q 337.744 51.074 339.16 52.783 Q 337.891 54.834 336.011 57.593 A 114.198 114.198 0 0 1 333.997 60.449 A 148.051 148.051 0 0 1 331.714 63.501 Q 329.297 66.65 326.392 70.044 A 107.607 107.607 0 0 1 324.49 72.202 M 372.266 51.318 A 144.19 144.19 0 0 0 368.53 43.628 A 166.685 166.685 0 0 0 364.16 35.791 A 187.94 187.94 0 0 0 360.114 47.913 A 215.253 215.253 0 0 0 358.887 52.197 A 15.689 15.689 0 0 0 360.62 52.295 L 362.354 52.295 Q 364.844 52.295 367.31 52.075 A 40.57 40.57 0 0 0 372.266 51.318 Z" id="4" vector-effect="non-scaling-stroke"/><path d="M 484.521 42.578 Q 484.619 43.408 484.668 44.238 A 28.265 28.265 0 0 1 484.717 45.898 A 24.16 24.16 0 0 1 483.228 54.297 A 29.545 29.545 0 0 1 479.053 61.914 A 35.886 35.886 0 0 1 473.116 68.061 A 39.984 39.984 0 0 1 472.656 68.433 A 43.027 43.027 0 0 1 464.551 73.511 A 45.323 45.323 0 0 1 455.176 76.807 Q 450.195 77.979 445.02 77.979 Q 441.211 77.979 437.329 77.197 A 24.859 24.859 0 0 1 430.301 74.605 A 28.118 28.118 0 0 1 429.785 74.316 A 57.421 57.421 0 0 0 424.853 75.114 A 70.182 70.182 0 0 0 421.729 75.83 A 193.17 193.17 0 0 0 415.68 77.469 A 227.923 227.923 0 0 0 412.793 78.32 Q 416.65 67.969 418.896 57.495 A 107.952 107.952 0 0 0 421.289 36.279 A 41.031 41.031 0 0 0 416.164 39.032 A 46.486 46.486 0 0 0 414.99 39.795 A 148.495 148.495 0 0 0 415.16 38.575 Q 415.224 38.092 415.28 37.653 A 82.122 82.122 0 0 0 415.381 36.816 A 28.405 28.405 0 0 0 415.464 35.996 Q 415.527 35.262 415.527 34.717 A 28.233 28.233 0 0 0 413.822 24.779 A 25.671 25.671 0 0 0 409.814 17.725 A 28.679 28.679 0 0 1 411.375 17.316 Q 412.447 17.065 413.696 16.846 A 111.763 111.763 0 0 1 416.597 16.376 A 135.107 135.107 0 0 1 418.457 16.113 A 123.68 123.68 0 0 1 423.657 15.527 A 221.087 221.087 0 0 1 428.518 15.134 A 202.098 202.098 0 0 1 428.833 15.112 Q 431.348 14.941 433.545 14.868 A 156.936 156.936 0 0 1 435.104 14.824 Q 435.716 14.809 436.266 14.802 A 80.122 80.122 0 0 1 437.305 14.795 A 79.564 79.564 0 0 1 447.23 15.387 A 61.81 61.81 0 0 1 455.151 16.895 Q 463.184 18.994 468.896 22.632 A 32.099 32.099 0 0 1 473.956 26.575 A 25.024 25.024 0 0 1 477.71 31.128 A 18.951 18.951 0 0 1 480.811 41.504 A 12.805 12.805 0 0 1 480.783 42.355 A 11.31 11.31 0 0 1 480.762 42.627 A 11.859 11.859 0 0 0 480.713 43.701 Q 482.617 43.262 484.521 42.578 Z M 462.891 45.801 A 15.075 15.075 0 0 0 460.972 41.793 A 13.471 13.471 0 0 0 459.326 39.819 A 21.221 21.221 0 0 0 453.857 35.889 Q 450.83 34.375 447.583 33.618 A 50.436 50.436 0 0 0 444.464 32.99 A 37.671 37.671 0 0 0 441.602 32.617 A 611.246 611.246 0 0 0 441.309 51.514 Q 441.309 55.713 441.382 59.937 A 494.726 494.726 0 0 0 441.602 68.408 Q 445.41 67.187 448.73 65.186 A 21.839 21.839 0 0 0 453.926 60.875 A 20.613 20.613 0 0 0 454.37 60.352 Q 456.689 57.52 457.813 53.906 Q 458.89 50.44 458.439 46.254 A 24.905 24.905 0 0 0 458.398 45.898 L 460.522 45.898 Q 461.67 45.898 462.891 45.801 Z" id="5" vector-effect="non-scaling-stroke"/><path d="M 580.078 20.898 A 115.404 115.404 0 0 0 570.884 43.177 A 106.471 106.471 0 0 0 569.995 46.411 Q 566.65 59.375 566.65 73.486 A 98.793 98.793 0 0 0 554.37 75.317 Q 548.34 76.611 542.383 78.32 A 137.479 137.479 0 0 0 538.232 66.797 A 80.391 80.391 0 0 0 533.768 57.616 A 72.915 72.915 0 0 0 533.057 56.396 Q 532.129 58.691 531.104 61.182 A 85.801 85.801 0 0 0 529.199 66.26 Q 528.32 68.848 527.637 71.533 A 38.819 38.819 0 0 0 526.66 76.904 Q 521.191 75.391 515.991 74.39 Q 510.791 73.389 505.957 73.389 A 28.778 28.778 0 0 0 505.527 73.392 Q 505.145 73.398 504.688 73.413 A 51.484 51.484 0 0 0 503.368 73.475 A 56.77 56.77 0 0 0 503.174 73.486 A 842.806 842.806 0 0 1 501.587 73.584 A 274.508 274.508 0 0 0 500.8 73.633 A 238.092 238.092 0 0 0 500.049 73.682 A 53.935 53.935 0 0 0 500.317 70.068 Q 500.391 68.262 500.391 66.406 A 78.917 78.917 0 0 0 496.851 42.822 Q 493.311 31.445 485.693 21.094 Q 498.926 20.508 512.354 17.187 A 2145.228 2145.228 0 0 1 513.757 21.649 A 1670.038 1670.038 0 0 1 515.039 25.757 Q 516.26 29.687 517.236 33.472 Q 518.213 37.256 518.945 41.162 A 101.141 101.141 0 0 1 519.761 46.259 A 124.471 124.471 0 0 1 520.166 49.609 A 288.161 288.161 0 0 0 521.32 45.978 A 228.278 228.278 0 0 0 522.339 42.603 A 85.331 85.331 0 0 0 523.589 37.856 A 74.551 74.551 0 0 0 523.926 36.328 A 52.279 52.279 0 0 0 524.829 30.371 A 42.417 42.417 0 0 0 525.003 26.498 A 46.59 46.59 0 0 0 524.951 24.316 A 96.769 96.769 0 0 0 527.594 24.658 A 77.223 77.223 0 0 0 530.054 24.902 A 59.013 59.013 0 0 0 532.754 25.065 A 47.275 47.275 0 0 0 534.473 25.098 A 66.75 66.75 0 0 0 537.104 25.044 A 77.088 77.088 0 0 0 538.062 25 A 44.774 44.774 0 0 0 540.484 24.805 A 55.299 55.299 0 0 0 542.09 24.609 Q 542.09 28.953 542.456 32.443 A 143.051 143.051 0 0 0 542.456 32.446 A 50.157 50.157 0 0 0 543.105 36.829 A 42.046 42.046 0 0 0 543.579 38.965 A 41.186 41.186 0 0 0 545.252 44.191 A 37.705 37.705 0 0 0 545.459 44.702 A 56.701 56.701 0 0 0 547.542 49.154 A 63.711 63.711 0 0 0 548.096 50.195 Q 549.219 46.24 549.976 42.236 Q 550.732 38.232 551.221 34.033 Q 551.709 29.834 552.002 25.391 A 331.513 331.513 0 0 0 552.271 20.825 A 386.802 386.802 0 0 0 552.49 16.016 A 82.917 82.917 0 0 0 565.967 19.678 A 77.815 77.815 0 0 0 578.017 20.874 A 87.479 87.479 0 0 0 580.078 20.898 Z" id="6" vector-effect="non-scaling-stroke"/><path d="M 658.545 56.494 Q 656.494 57.471 654.492 58.374 A 112.263 112.263 0 0 1 650.439 60.107 A 129.451 129.451 0 0 0 660.352 75.391 A 69.585 69.585 0 0 0 648.504 76.374 A 62.946 62.946 0 0 0 645.898 76.88 A 70.098 70.098 0 0 0 635.461 80.034 A 81.183 81.183 0 0 0 631.934 81.494 A 8.686 8.686 0 0 0 632.593 78.882 A 30.468 30.468 0 0 0 632.715 76.123 Q 632.715 73.779 632.275 70.972 A 45.949 45.949 0 0 0 631.554 67.357 A 54.905 54.905 0 0 0 630.957 65.088 A 49.998 49.998 0 0 1 626.855 65.503 A 67.404 67.404 0 0 1 622.852 65.625 A 55.267 55.267 0 0 1 616.04 65.21 A 35.705 35.705 0 0 1 609.619 63.818 Q 608.789 67.432 608.105 71.216 A 821.657 821.657 0 0 0 606.76 78.879 A 891.932 891.932 0 0 0 606.738 79.004 Q 604.248 77.734 601.27 76.709 A 49.582 49.582 0 0 0 598.894 76.001 Q 597.267 75.558 595.386 75.146 A 32.162 32.162 0 0 0 589.709 74.44 A 36.592 36.592 0 0 0 588.33 74.414 A 42.429 42.429 0 0 0 583.996 74.645 A 51.41 51.41 0 0 0 581.592 74.951 Q 578.027 75.488 573.73 76.709 A 107.607 107.607 0 0 0 579.956 70.044 Q 582.861 66.65 585.278 63.501 A 148.051 148.051 0 0 0 587.561 60.449 A 114.198 114.198 0 0 0 589.575 57.593 Q 591.455 54.834 592.725 52.783 Q 591.309 51.074 590.112 49.121 A 44.767 44.767 0 0 1 588.387 46.027 A 50.774 50.774 0 0 1 587.842 44.922 Q 589.795 45.898 591.699 46.704 Q 593.604 47.51 595.459 48.193 A 232.049 232.049 0 0 1 600.195 40.234 Q 602.686 36.23 605.518 32.422 A 39.836 39.836 0 0 0 604.944 31.108 Q 604.638 30.439 604.276 29.7 A 70.963 70.963 0 0 0 604.028 29.199 A 117.503 117.503 0 0 0 602.591 26.421 A 133.075 133.075 0 0 0 602.075 25.464 Q 601.025 23.535 599.854 21.631 A 79.407 79.407 0 0 0 598.408 19.365 A 65.308 65.308 0 0 0 597.559 18.115 Q 602.246 19.385 606.958 20.117 A 92.477 92.477 0 0 0 616.357 21.094 A 54.341 54.341 0 0 1 621.973 17.065 A 48.092 48.092 0 0 1 628.125 13.818 Q 627.1 15.527 626.123 17.334 A 129.376 129.376 0 0 0 624.219 20.996 Q 626.66 20.752 629.15 20.435 A 71.983 71.983 0 0 0 632.996 19.835 A 81.993 81.993 0 0 0 634.326 19.58 A 211.332 211.332 0 0 0 638.281 32.422 A 222.472 222.472 0 0 0 642.92 44.727 A 162.763 162.763 0 0 0 647.192 42.212 A 65.467 65.467 0 0 0 651.416 39.404 A 107.39 107.39 0 0 0 653.351 45.345 A 86.846 86.846 0 0 0 654.688 48.828 A 56.533 56.533 0 0 0 656.773 53.369 A 44.676 44.676 0 0 0 658.545 56.494 Z M 625.83 51.318 A 144.19 144.19 0 0 0 622.095 43.628 A 166.685 166.685 0 0 0 617.725 35.791 A 187.94 187.94 0 0 0 613.678 47.913 A 215.253 215.253 0 0 0 612.451 52.197 A 15.689 15.689 0 0 0 614.185 52.295 L 615.918 52.295 Q 618.408 52.295 620.874 52.075 A 40.57 40.57 0 0 0 625.83 51.318 Z" id="7" vector-effect="non-scaling-stroke"/><path d="M 713.77 19.482 L 717.139 19.482 A 117.513 117.513 0 0 0 716.209 24.875 A 133.217 133.217 0 0 0 715.942 26.758 A 231.012 231.012 0 0 0 715.039 34.448 A 156.155 156.155 0 0 0 714.453 42.187 A 151.42 151.42 0 0 0 714.27 47.809 A 134.164 134.164 0 0 0 714.258 49.609 A 229.159 229.159 0 0 0 714.282 52.979 Q 714.307 54.639 714.453 56.299 A 67.282 67.282 0 0 0 717.905 55.071 A 73.644 73.644 0 0 0 718.14 54.98 A 903.066 903.066 0 0 0 721.875 53.516 Q 718.115 59.277 712.744 63.843 Q 707.373 68.408 700.269 71.704 A 72.691 72.691 0 0 1 690.948 75.24 A 91.439 91.439 0 0 1 684.277 77.002 A 112.854 112.854 0 0 1 673.693 78.837 A 145.026 145.026 0 0 1 664.648 79.688 A 353.944 353.944 0 0 0 664.636 76.703 A 292.766 292.766 0 0 0 664.6 73.901 A 41.555 41.555 0 0 0 664.16 68.555 A 33.865 33.865 0 0 0 662.968 63.4 A 37.08 37.08 0 0 0 662.915 63.232 A 30.111 30.111 0 0 0 661.794 60.283 A 40.453 40.453 0 0 0 660.449 57.52 A 104.767 104.767 0 0 0 668.367 59.559 A 84.406 84.406 0 0 0 673.486 60.498 Q 679.639 61.426 685.352 61.426 A 77.421 77.421 0 0 0 690.503 61.255 Q 693.066 61.084 695.654 60.791 A 251.321 251.321 0 0 0 692.725 36.89 A 194.814 194.814 0 0 0 687.354 13.818 A 151.127 151.127 0 0 0 696.902 16.815 A 128.535 128.535 0 0 0 701.074 17.896 A 57.052 57.052 0 0 0 709.809 19.32 A 48.919 48.919 0 0 0 713.77 19.482 Z" id="8" vector-effect="non-scaling-stroke"/><path d="M 796.338 5.078 A 229.165 229.165 0 0 0 794.507 21.46 Q 793.896 29.59 793.75 37.793 Q 802.686 30.322 810.132 21.167 A 164.314 164.314 0 0 0 823.926 1.318 Q 828.613 6.738 834.668 10.889 A 73.148 73.148 0 0 0 845.345 16.924 A 82.953 82.953 0 0 0 848.047 18.115 A 154.952 154.952 0 0 1 832.764 29.614 A 124.288 124.288 0 0 1 816.455 38.721 A 101.528 101.528 0 0 0 828.979 55.493 A 186.635 186.635 0 0 0 844.629 70.605 A 102.313 102.313 0 0 0 825.834 76.539 A 87.754 87.754 0 0 0 817.041 80.908 Q 813.184 70.703 807.495 61.987 A 79.263 79.263 0 0 0 793.75 46.094 A 350.787 350.787 0 0 0 794.043 60.498 Q 794.336 67.627 795.02 74.902 A 123.511 123.511 0 0 0 787.818 75.553 A 113.25 113.25 0 0 0 787.354 75.61 A 95.951 95.951 0 0 0 779.956 76.831 Q 776.27 77.588 772.559 78.613 Q 768.848 79.639 764.941 80.908 Q 772.852 55.273 772.852 28.906 Q 772.852 15.869 770.947 2.588 Q 775.537 4.102 779.81 4.858 A 50.442 50.442 0 0 0 788.623 5.615 A 73.411 73.411 0 0 0 792.383 5.518 A 33.855 33.855 0 0 0 795.322 5.234 A 38.584 38.584 0 0 0 796.338 5.078 Z" id="10" vector-effect="non-scaling-stroke"/><path d="M 878.223 60.889 L 878.467 59.424 Q 881.885 60.303 883.838 60.303 Q 886.768 60.303 889.063 59.229 A 13.309 13.309 0 0 0 893.066 56.372 A 17.549 17.549 0 0 0 895.683 52.823 A 19.791 19.791 0 0 0 895.996 52.246 Q 897.217 49.902 897.949 47.363 Q 898.682 44.824 899.023 42.261 A 39.396 39.396 0 0 0 899.317 39.161 A 32.93 32.93 0 0 0 899.365 37.402 A 18.765 18.765 0 0 0 899.267 35.543 Q 899.141 34.279 898.853 32.837 A 49.098 49.098 0 0 0 898.069 29.537 A 58.611 58.611 0 0 0 897.461 27.466 A 76.555 76.555 0 0 0 895.435 21.802 Q 894.287 18.945 892.969 16.309 A 49.104 49.104 0 0 0 895.345 16.937 A 62.149 62.149 0 0 0 897.363 17.383 Q 899.756 17.871 902.246 18.237 A 73.517 73.517 0 0 0 907.251 18.799 A 64.457 64.457 0 0 0 910.89 18.982 A 55.915 55.915 0 0 0 912.061 18.994 A 38.639 38.639 0 0 0 917.847 18.555 Q 920.752 18.115 923.535 16.895 A 133.309 133.309 0 0 1 922.988 29.281 Q 922.285 36.803 920.679 43.188 A 64.437 64.437 0 0 1 917.519 52.715 A 46.627 46.627 0 0 1 912.183 62.183 A 36.088 36.088 0 0 1 898.193 73.706 A 40.787 40.787 0 0 1 887.349 76.947 A 54.042 54.042 0 0 1 878.857 77.588 A 51.372 51.372 0 0 1 872.998 77.246 Q 870.02 76.904 866.943 76.221 A 7.877 7.877 0 0 0 867.514 75.903 Q 867.85 75.699 868.213 75.439 Q 868.616 75.171 869.099 74.822 A 44.402 44.402 0 0 0 869.556 74.487 A 21.852 21.852 0 0 0 870.43 73.802 A 27.799 27.799 0 0 0 871.143 73.193 A 24.113 24.113 0 0 1 862.061 67.993 A 30.03 30.03 0 0 1 856.308 60.825 A 34.912 34.912 0 0 1 855.444 59.253 A 42.367 42.367 0 0 1 852.623 52.28 A 52.485 52.485 0 0 1 851.416 47.583 A 64.513 64.513 0 0 1 850.182 38.17 A 76.971 76.971 0 0 1 850.049 33.594 A 77.037 77.037 0 0 1 850.067 31.873 A 56.384 56.384 0 0 1 850.122 30.322 Q 850.195 28.857 850.342 27.393 A 78.635 78.635 0 0 1 850.603 25.127 A 89.191 89.191 0 0 1 850.708 24.341 Q 850.928 22.754 851.221 20.703 A 249.124 249.124 0 0 0 852.429 20.801 A 296.906 296.906 0 0 0 853.711 20.898 A 39.237 39.237 0 0 0 854.759 20.975 Q 855.296 21.007 855.894 21.03 A 67.942 67.942 0 0 0 856.299 21.045 Q 857.764 21.094 859.326 21.094 A 66.02 66.02 0 0 0 861.475 21.057 A 85.962 85.962 0 0 0 863.818 20.947 A 66.184 66.184 0 0 0 867.302 20.642 A 78.186 78.186 0 0 0 868.97 20.435 A 57.196 57.196 0 0 0 873.145 19.707 A 65.241 65.241 0 0 0 874.585 19.385 A 46.98 46.98 0 0 0 879.725 17.852 A 51.905 51.905 0 0 0 880.469 17.578 A 295.918 295.918 0 0 0 878.772 21.552 A 219.163 219.163 0 0 0 877.295 25.171 A 79.488 79.488 0 0 0 875.784 29.29 A 64.664 64.664 0 0 0 875.024 31.714 Q 874.121 34.814 873.682 37.72 A 39.285 39.285 0 0 0 873.242 43.604 A 36.494 36.494 0 0 0 873.743 49.757 A 30.905 30.905 0 0 0 874.463 52.954 A 25.978 25.978 0 0 0 878.223 60.889 Z" id="11" vector-effect="non-scaling-stroke"/><path d="M 1005.251 72.202 A 91.643 91.643 0 0 1 1002.611 69.623 A 100.257 100.257 0 0 1 989.355 52.783 Q 992.48 50.293 995.142 47.363 A 42.493 42.493 0 0 0 999.829 41.162 Q 1001.855 37.891 1003.223 34.399 Q 1004.59 30.908 1005.176 27.393 A 33.513 33.513 0 0 1 1004.617 27.725 A 29.264 29.264 0 0 1 1002.979 28.613 Q 1001.904 29.15 1000.781 29.687 Q 999.951 26.27 997.583 23.828 A 18.583 18.583 0 0 0 996.176 22.52 A 20.713 20.713 0 0 0 991.895 19.775 A 31.394 31.394 0 0 0 989.755 18.835 A 36.441 36.441 0 0 0 984.595 17.236 A 75.277 75.277 0 0 0 976.611 15.82 A 95.19 95.19 0 0 0 976.112 15.761 A 87.31 87.31 0 0 0 968.799 15.21 A 294.54 294.54 0 0 0 967.745 15.178 Q 966.19 15.134 964.792 15.111 A 170.025 170.025 0 0 0 962.061 15.088 A 166.402 166.402 0 0 0 960.241 15.098 Q 957.46 15.128 954.371 15.25 A 281.742 281.742 0 0 0 947.632 15.601 Q 939.551 16.113 929.053 17.578 A 23.583 23.583 0 0 1 931.592 23.413 A 22.222 22.222 0 0 1 931.896 24.613 A 24.475 24.475 0 0 1 932.471 29.98 A 26.482 26.482 0 0 1 932.044 34.597 A 36.366 36.366 0 0 1 930.957 39.014 A 85.366 85.366 0 0 1 936.133 36.963 A 140.524 140.524 0 0 1 941.357 35.205 L 941.357 37.012 A 107.677 107.677 0 0 1 940.771 48.291 Q 938.184 47.852 935.62 47.266 A 103.569 103.569 0 0 1 935.46 47.229 A 95.272 95.272 0 0 1 930.664 45.996 Q 931.503 46.97 932.885 48.266 A 65.561 65.561 0 0 0 934.253 49.512 Q 936.621 51.611 939.941 53.809 A 122.169 122.169 0 0 1 937.134 67.236 A 153.029 153.029 0 0 1 932.861 80.615 Q 939.502 78.418 945.264 77.319 A 66.402 66.402 0 0 1 950.461 76.531 A 49.63 49.63 0 0 1 955.859 76.221 A 57.179 57.179 0 0 1 956.667 76.226 A 66.455 66.455 0 0 1 958.838 76.294 Q 960.4 76.367 961.963 76.611 A 386.924 386.924 0 0 1 961.377 61.523 Q 962.207 61.621 963.013 61.621 L 964.648 61.621 A 37.333 37.333 0 0 0 965.183 61.617 A 33.868 33.868 0 0 0 968.799 61.377 A 40.144 40.144 0 0 0 972.754 60.693 A 57.158 57.158 0 0 1 974.594 65.237 A 63.278 63.278 0 0 1 977.881 80.078 Q 984.814 76.709 991.528 74.78 A 68.691 68.691 0 0 1 1005.134 72.332 M 984.082 34.57 L 984.082 34.521 L 984.18 34.521 A 18.961 18.961 0 0 0 982.447 32.837 A 17.135 17.135 0 0 0 982.153 32.593 Q 981.104 31.738 979.736 31.152 A 11.622 11.622 0 0 0 978.259 30.64 Q 977.466 30.42 976.563 30.273 Q 974.756 29.98 972.266 29.98 Q 970.77 29.98 968.846 30.109 A 82.545 82.545 0 0 0 967.627 30.2 A 500.196 500.196 0 0 0 964.819 30.438 A 643.239 643.239 0 0 0 961.768 30.713 A 1845.872 1845.872 0 0 0 961.499 40.063 A 353.585 353.585 0 0 0 961.377 49.316 A 26.206 26.206 0 0 0 966.242 48.117 A 23.995 23.995 0 0 0 966.895 47.876 A 17.546 17.546 0 0 0 970.547 45.962 A 15.862 15.862 0 0 0 971.484 45.264 A 13.314 13.314 0 0 0 974.78 41.333 A 13.394 13.394 0 0 0 975.998 38.295 A 17.51 17.51 0 0 0 976.465 35.889 A 654.135 654.135 0 0 1 980.249 35.303 A 95.127 95.127 0 0 0 984.18 34.619 Q 984.122 34.619 984.098 34.602 A 0.037 0.037 0 0 1 984.082 34.57 Z" id="12" vector-effect="non-scaling-stroke"/><path d="M 1005.134 72.332 A 107.607 107.607 0 0 1 1000.928 76.709 Q 1005.225 75.488 1008.789 74.951 A 51.41 51.41 0 0 1 1011.193 74.645 A 42.429 42.429 0 0 1 1015.527 74.414 A 36.592 36.592 0 0 1 1016.906 74.44 A 32.162 32.162 0 0 1 1022.583 75.146 Q 1024.464 75.558 1026.091 76.001 A 49.582 49.582 0 0 1 1028.467 76.709 Q 1031.445 77.734 1033.936 79.004 A 891.932 891.932 0 0 1 1033.957 78.879 A 821.657 821.657 0 0 1 1035.303 71.216 Q 1035.986 67.432 1036.816 63.818 A 35.705 35.705 0 0 0 1043.237 65.21 A 55.267 55.267 0 0 0 1050.049 65.625 A 67.404 67.404 0 0 0 1054.053 65.503 A 49.998 49.998 0 0 0 1058.154 65.088 A 54.905 54.905 0 0 1 1058.752 67.357 A 45.949 45.949 0 0 1 1059.473 70.972 Q 1059.912 73.779 1059.912 76.123 A 30.468 30.468 0 0 1 1059.79 78.882 A 8.686 8.686 0 0 1 1059.131 81.494 A 81.183 81.183 0 0 1 1062.659 80.034 A 70.098 70.098 0 0 1 1073.096 76.88 A 62.946 62.946 0 0 1 1075.702 76.374 A 69.585 69.585 0 0 1 1087.549 75.391 A 129.451 129.451 0 0 1 1077.637 60.107 A 112.263 112.263 0 0 0 1081.689 58.374 Q 1083.691 57.471 1085.742 56.494 A 44.676 44.676 0 0 1 1083.97 53.369 A 56.533 56.533 0 0 1 1081.885 48.828 A 86.846 86.846 0 0 1 1080.549 45.345 A 107.39 107.39 0 0 1 1078.613 39.404 A 65.467 65.467 0 0 1 1074.39 42.212 A 162.763 162.763 0 0 1 1070.117 44.727 A 222.472 222.472 0 0 1 1065.479 32.422 A 211.332 211.332 0 0 1 1061.523 19.58 A 81.993 81.993 0 0 1 1060.193 19.835 A 71.983 71.983 0 0 1 1056.348 20.435 Q 1053.857 20.752 1051.416 20.996 A 129.376 129.376 0 0 1 1053.32 17.334 Q 1054.297 15.527 1055.322 13.818 A 48.092 48.092 0 0 0 1049.17 17.065 A 54.341 54.341 0 0 0 1043.555 21.094 A 92.477 92.477 0 0 1 1034.155 20.117 Q 1029.443 19.385 1024.756 18.115 A 65.308 65.308 0 0 1 1025.605 19.365 A 79.407 79.407 0 0 1 1027.051 21.631 Q 1028.223 23.535 1029.272 25.464 A 133.075 133.075 0 0 1 1029.788 26.421 A 117.503 117.503 0 0 1 1031.226 29.199 A 70.963 70.963 0 0 1 1031.473 29.7 Q 1031.836 30.439 1032.141 31.108 A 39.836 39.836 0 0 1 1032.715 32.422 Q 1029.883 36.23 1027.393 40.234 A 232.049 232.049 0 0 0 1022.656 48.193 Q 1020.801 47.51 1018.896 46.704 Q 1016.992 45.898 1015.039 44.922 A 50.774 50.774 0 0 0 1015.584 46.027 A 44.767 44.767 0 0 0 1017.31 49.121 Q 1018.506 51.074 1019.922 52.783 Q 1018.652 54.834 1016.772 57.593 A 114.198 114.198 0 0 1 1014.758 60.449 A 148.051 148.051 0 0 1 1012.476 63.501 Q 1010.059 66.65 1007.153 70.044 A 107.607 107.607 0 0 1 1005.251 72.202 M 1053.027 51.318 A 144.19 144.19 0 0 0 1049.292 43.628 A 166.685 166.685 0 0 0 1044.922 35.791 A 187.94 187.94 0 0 0 1040.875 47.913 A 215.253 215.253 0 0 0 1039.648 52.197 A 15.689 15.689 0 0 0 1041.382 52.295 L 1043.115 52.295 Q 1045.605 52.295 1048.071 52.075 A 40.57 40.57 0 0 0 1053.027 51.318 Z" id="13" vector-effect="non-scaling-stroke"/></g></svg>